{
.appVersion = "1141";
copyright = "Copyright 2019 Google Inc. All Rights Reserved.";
customParameters = (
{
name = glyphOrder;
value = (
.notdef,
NULL,
CR,
OneThreeHundredandTwentieth,
OneHundredandSixtieth,
OneEightieth,
OneSixtyFourth,
OneFortieth,
OneThirtySecond,
ThreeEightieths,
ThreeSixtyFourths,
OneTwentieth,
OneSixteenth_1,
OneSixteenth_2,
OneTenth,
OneEighth,
ThreeTwentieths,
ThreeSixteenths,
OneFifth,
OneQuarter,
OneHalf_1,
OneHalf_2,
ThreeQuarters,
DownscalingFactorKiizh,
Nel,
Cevitu,
Aazhaakku,
Uzhakku,
Muuvuzhakku,
Kuruni,
Pathakku,
Mukkuruni,
Kaacu,
Panam,
Pon,
Varaakan,
Paaram,
Kuzhi,
Veli,
WetCultivationSign,
DryCultivationSign,
LandSign,
SaltPanSign,
TraditionalCreditSign,
TraditionalNumberSign,
CurrentSign,
AndOddSign,
SpentSign,
TotalSign,
InPossessionSign,
StartingFrom,
Muthaliya,
Vakaiyaraa,
PunctuationEndOfText
);
},
{
name = description;
value = "Designed by Ek Type";
},
{
name = openTypeNameLicense;
value = "This Font Software is licensed under the SIL Open Font License, Version 1.1. This Font Software is distributed on an \"AS IS\" BASIS, WITHOUT WARRANTIES OR CONDITIONS OF ANY KIND, either express or implied. See the SIL Open Font License for the specific language, permissions and limitations governing your use of this Font Software.";
},
{
name = openTypeNameLicenseURL;
value = "http://scripts.sil.org/OFL";
},
{
name = fsType;
value = (
);
},
{
name = unicodeRanges;
value = (
20
);
},
{
name = vendorID;
value = GOOG;
},
{
name = trademark;
value = "Noto is a trademark of Google Inc.";
},
{
name = versionString;
value = "Version 1.000";
}
);
date = "2019-07-20 11:03:53 +0000";
designer = "Ek Type";
designerURL = "http://www.ektype.in";
familyName = "Noto Sans Tamil Supplement";
fontMaster = (
{
alignmentZones = (
"{714, 12}",
"{554, 12}",
"{0, -12}"
);
ascender = 870;
capHeight = 714;
customParameters = (
{
name = underlineThickness;
value = 50;
},
{
name = underlinePosition;
value = -100;
}
);
descender = -370;
guideLines = (
{

glyphs = (
{
glyphname = OneThreeHundredandTwentieth;
lastChange = "2019-07-24 07:30:30 +0000";
layers = (
{
guideLines = (
{
angle = 270;
position = "{57, 153}";
}
);
layerId = master01;
paths = (
{
closed = 1;
nodes = (
"57 63 OFFCURVE",
"142 -12 OFFCURVE",
"249 -12 CURVE SMOOTH",
"356 -12 OFFCURVE",
"422 54 OFFCURVE",
"422 165 CURVE SMOOTH",
"422 265 OFFCURVE",
"357 328 OFFCURVE",
"261 328 CURVE SMOOTH",
"218 328 OFFCURVE",
"175 313 OFFCURVE",
"140 290 CURVE",
"158 408 OFFCURVE",
"237 492 OFFCURVE",
"360 492 CURVE SMOOTH",
"484 492 OFFCURVE",
"563 411 OFFCURVE",
"563 269 CURVE SMOOTH",
"563 178 OFFCURVE",
"542 109 OFFCURVE",
"511 63 CURVE",
"515 0 LINE",
"922 0 LINE",
"922 355 LINE SMOOTH",
"922 446 OFFCURVE",
"965 494 OFFCURVE",
"1030 494 CURVE SMOOTH",
"1065 494 OFFCURVE",
"1094 483 OFFCURVE",
"1116 461 CURVE SMOOTH",
"1148 429 OFFCURVE",
"1165 377 OFFCURVE",
"1173 315 CURVE SMOOTH",
"1175 303 LINE",
"1097 274 OFFCURVE",
"1064 221 OFFCURVE",
"1064 152 CURVE SMOOTH",
"1064 47 OFFCURVE",
"1155 -12 OFFCURVE",
"1276 -12 CURVE SMOOTH",
"1360 -12 OFFCURVE",
"1425 6 OFFCURVE",
"1467 57 CURVE SMOOTH",
"1495 91 OFFCURVE",
"1511 136 OFFCURVE",
"1511 226 CURVE SMOOTH",
"1511 257 LINE",
"1610 253 OFFCURVE",
"1706 223 OFFCURVE",
"1706 105 CURVE SMOOTH",
"1706 55 OFFCURVE",
"1692 16 OFFCURVE",
"1665 -13 CURVE SMOOTH",
"1619 -63 OFFCURVE",
"1547 -84 OFFCURVE",
"1369 -84 CURVE SMOOTH",
"1034 -84 LINE SMOOTH",
"967 -84 OFFCURVE",
"928 -94 OFFCURVE",
"893 -119 CURVE SMOOTH",
"859 -144 OFFCURVE",
"836 -184 OFFCURVE",
"836 -243 CURVE SMOOTH",
"836 -266 OFFCURVE",
"839 -297 OFFCURVE",
"843 -321 CURVE",
"925 -317 LINE",
"923 -301 OFFCURVE",
"922 -283 OFFCURVE",
"922 -263 CURVE SMOOTH",
"922 -219 OFFCURVE",
"934 -194 OFFCURVE",
"956 -179 CURVE SMOOTH",
"978 -164 OFFCURVE",
"1004 -156 OFFCURVE",
"1061 -156 CURVE SMOOTH",
"1400 -156 LINE SMOOTH",
"1544 -156 OFFCURVE",
"1630 -141 OFFCURVE",
"1696 -94 CURVE SMOOTH",
"1758 -50 OFFCURVE",
"1792 9 OFFCURVE",
"1792 98 CURVE SMOOTH",
"1792 265 OFFCURVE",
"1675 324 OFFCURVE",
"1511 328 CURVE",
"1511 482 LINE",
"1698 482 LINE",
"1698 554 LINE",
"1187 554 LINE",
"1187 477 LINE",
"1181 489 OFFCURVE",
"1173 500 OFFCURVE",
"1164 509 CURVE SMOOTH",
"1129 546 OFFCURVE",
"1085 566 OFFCURVE",
"1021 566 CURVE SMOOTH",
"908 566 OFFCURVE",
"836 495 OFFCURVE",
"836 357 CURVE SMOOTH",
"836 72 LINE",
"603 72 LINE",
"630 131 OFFCURVE",
"651 194 OFFCURVE",
"651 280 CURVE SMOOTH",
"651 437 OFFCURVE",
"567 566 OFFCURVE",
"364 566 CURVE SMOOTH",
"199 566 OFFCURVE",
"57 457 OFFCURVE",
"57 243 CURVE SMOOTH"
);
},
{
closed = 1;
nodes = (
"169 240 OFFCURVE",
"206 258 OFFCURVE",
"247 258 CURVE SMOOTH",
"302 258 OFFCURVE",
"340 221 OFFCURVE",
"340 155 CURVE SMOOTH",
"340 91 OFFCURVE",
"305 56 OFFCURVE",
"253 56 CURVE SMOOTH",
"191 56 OFFCURVE",
"143 97 OFFCURVE",
"137 212 CURVE"
);
},
{
closed = 1;
nodes = (
"1150 191 OFFCURVE",
"1164 215 OFFCURVE",
"1193 232 CURVE SMOOTH",
"1226 251 OFFCURVE",
"1272 258 OFFCURVE",
"1340 258 CURVE SMOOTH",
"1426 258 LINE",
"1426 213 LINE SMOOTH",
"1426 94 OFFCURVE",
"1371 60 OFFCURVE",
"1284 60 CURVE SMOOTH",
"1207 60 OFFCURVE",
"1150 91 OFFCURVE",
"1150 153 CURVE SMOOTH"
);
},
{
closed = 1;
nodes = (
"1254 482 LINE",
"1426 482 LINE",
"1426 328 LINE",
"1347 328 LINE SMOOTH",
"1313 328 OFFCURVE",
"1282 326 OFFCURVE",
"1254 322 CURVE"
);
}
);
width = 1840;
}
);
unicode = 11FC0;
},
{
glyphname = OneHundredandSixtieth;
lastChange = "2019-07-24 07:30:32 +0000";
layers = (
{
layerId = master01;
paths = (
{
closed = 1;
nodes = (
"81 701 LINE",
"158 734 OFFCURVE",
"265 767 OFFCURVE",
"410 767 CURVE SMOOTH",
"603 767 OFFCURVE",
"734 677 OFFCURVE",
"734 390 CURVE SMOOTH",
"734 146 OFFCURVE",
"673 60 OFFCURVE",
"573 60 CURVE SMOOTH",
"474 60 OFFCURVE",
"434 138 OFFCURVE",
"434 276 CURVE SMOOTH",
"434 343 OFFCURVE",
"441 414 OFFCURVE",
"460 482 CURVE",
"589 482 LINE",
"589 554 LINE",
"88 554 LINE",
"88 0 LINE",
"174 0 LINE",
"174 482 LINE",
"373 482 LINE",
"355 412 OFFCURVE",
"348 343 OFFCURVE",
"348 272 CURVE SMOOTH",
"348 90 OFFCURVE",
"423 -16 OFFCURVE",
"573 -16 CURVE SMOOTH",
"740 -16 OFFCURVE",
"821 114 OFFCURVE",
"821 390 CURVE SMOOTH",
"821 730 OFFCURVE",
"651 843 OFFCURVE",
"411 843 CURVE SMOOTH",
"262 843 OFFCURVE",
"142 805 OFFCURVE",
"58 765 CURVE"
);
}
);
width = 884;
}
);
unicode = 11FC1;
},
{
glyphname = OneEightieth;
lastChange = "2019-07-24 07:30:33 +0000";
layers = (
{
layerId = master01;
paths = (
{
closed = 1;
nodes = (
"68 328 OFFCURVE",
"135 283 OFFCURVE",
"219 283 CURVE SMOOTH",
"308 283 OFFCURVE",
"365 331 OFFCURVE",
"365 411 CURVE SMOOTH",
"365 437 OFFCURVE",
"360 471 OFFCURVE",
"346 504 CURVE",
"427 494 OFFCURVE",
"475 444 OFFCURVE",
"475 367 CURVE SMOOTH",
"475 283 OFFCURVE",
"409 246 OFFCURVE",
"325 209 CURVE SMOOTH",
"272 186 LINE SMOOTH",
"136 127 OFFCURVE",
"80 59 OFFCURVE",
"80 -50 CURVE SMOOTH",
"80 -181 OFFCURVE",
"185 -271 OFFCURVE",
"352 -271 CURVE SMOOTH",
"523 -271 OFFCURVE",
"617 -175 OFFCURVE",
"617 -42 CURVE SMOOTH",
"617 57 OFFCURVE",
"575 126 OFFCURVE",
"486 174 CURVE",
"442 108 LINE",
"503 74 OFFCURVE",
"533 25 OFFCURVE",
"533 -42 CURVE SMOOTH",
"533 -135 OFFCURVE",
"465 -197 OFFCURVE",
"352 -197 CURVE SMOOTH",
"234 -197 OFFCURVE",
"165 -135 OFFCURVE",
"165 -51 CURVE SMOOTH",
"165 21 OFFCURVE",
"200 75 OFFCURVE",
"313 123 CURVE SMOOTH",
"348 138 LINE SMOOTH",
"476 194 OFFCURVE",
"558 245 OFFCURVE",
"558 370 CURVE SMOOTH",
"558 442 OFFCURVE",
"527 504 OFFCURVE",
"460 539 CURVE SMOOTH",
"418 561 OFFCURVE",
"363 573 OFFCURVE",
"292 573 CURVE SMOOTH",
"143 573 OFFCURVE",
"68 509 OFFCURVE",
"68 423 CURVE SMOOTH"
);
},
{
closed = 1;
nodes = (
"142 478 OFFCURVE",
"197 507 OFFCURVE",
"272 507 CURVE SMOOTH",
"275 507 LINE",
"289 480 OFFCURVE",
"295 452 OFFCURVE",
"295 425 CURVE SMOOTH",
"295 369 OFFCURVE",
"263 347 OFFCURVE",
"219 347 CURVE SMOOTH",
"170 347 OFFCURVE",
"142 376 OFFCURVE",
"142 419 CURVE SMOOTH"
);
}
);
width = 677;
}
);
unicode = 11FC2;
},
{
glyphname = OneSixtyFourth;
lastChange = "2019-07-24 07:30:34 +0000";
layers = (
{
guideLines = (
{
angle = 90;
position = "{894, 536}";
},
{
angle = 90;
position = "{960, 542}";
}
);
layerId = master01;
paths = (
{
closed = 1;
nodes = (
"48 328 OFFCURVE",
"115 283 OFFCURVE",
"199 283 CURVE SMOOTH",
"288 283 OFFCURVE",
"345 331 OFFCURVE",
"345 411 CURVE SMOOTH",
"345 437 OFFCURVE",
"340 471 OFFCURVE",
"326 504 CURVE",
"407 494 OFFCURVE",
"455 444 OFFCURVE",
"455 367 CURVE SMOOTH",
"455 284 OFFCURVE",
"406 252 OFFCURVE",
"344 213 CURVE SMOOTH",
"297 184 LINE SMOOTH",
"200 124 OFFCURVE",
"150 70 OFFCURVE",
"150 -32 CURVE SMOOTH",
"150 -165 OFFCURVE",
"256 -254 OFFCURVE",
"443 -254 CURVE SMOOTH",
"659 -254 OFFCURVE",
"759 -131 OFFCURVE",
"759 55 CURVE SMOOTH",
"759 237 OFFCURVE",
"704 419 OFFCURVE",
"704 601 CURVE SMOOTH",
"704 719 OFFCURVE",
"757 790 OFFCURVE",
"849 790 CURVE SMOOTH",
"864 790 OFFCURVE",
"876 788 OFFCURVE",
"886 785 CURVE",
"840 754 OFFCURVE",
"813 705 OFFCURVE",
"813 648 CURVE SMOOTH",
"813 574 OFFCURVE",
"864 525 OFFCURVE",
"936 525 CURVE SMOOTH",
"1012 525 OFFCURVE",
"1058 574 OFFCURVE",
"1058 648 CURVE SMOOTH",
"1058 703 OFFCURVE",
"1037 746 OFFCURVE",
"990 781 CURVE",
"1003 784 OFFCURVE",
"1018 786 OFFCURVE",
"1034 786 CURVE SMOOTH",
"1112 786 OFFCURVE",
"1149 735 OFFCURVE",
"1149 658 CURVE SMOOTH",
"1149 608 OFFCURVE",
"1137 577 OFFCURVE",
"1117 542 CURVE",
"1121 496 LINE",
"1340 496 LINE",
"1340 554 LINE",
"1197 554 LINE",
"1216 589 OFFCURVE",
"1224 632 OFFCURVE",
"1224 669 CURVE SMOOTH",
"1224 774 OFFCURVE",
"1163 847 OFFCURVE",
"1046 847 CURVE SMOOTH",
"1005 847 OFFCURVE",
"969 838 OFFCURVE",
"938 820 CURVE",
"912 836 OFFCURVE",
"879 847 OFFCURVE",
"835 847 CURVE SMOOTH",
"711 847 OFFCURVE",
"618 766 OFFCURVE",
"618 612 CURVE SMOOTH",
"618 429 OFFCURVE",
"673 246 OFFCURVE",
"673 63 CURVE SMOOTH",
"673 -85 OFFCURVE",
"599 -178 OFFCURVE",
"443 -178 CURVE SMOOTH",
"314 -178 OFFCURVE",
"236 -122 OFFCURVE",
"236 -33 CURVE SMOOTH",
"236 33 OFFCURVE",
"267 75 OFFCURVE",
"339 120 CURVE SMOOTH",
"385 149 LINE SMOOTH",
"477 207 OFFCURVE",
"538 250 OFFCURVE",
"538 367 CURVE SMOOTH",
"538 440 OFFCURVE",
"507 504 OFFCURVE",
"440 539 CURVE SMOOTH",
"398 561 OFFCURVE",
"343 573 OFFCURVE",
"272 573 CURVE SMOOTH",
"123 573 OFFCURVE",
"48 509 OFFCURVE",
"48 423 CURVE SMOOTH"
);
},
{
closed = 1;
nodes = (
"122 478 OFFCURVE",
"177 507 OFFCURVE",
"252 507 CURVE SMOOTH",
"255 507 LINE",
"269 480 OFFCURVE",
"275 452 OFFCURVE",
"275 425 CURVE SMOOTH",
"275 369 OFFCURVE",
"243 347 OFFCURVE",
"199 347 CURVE SMOOTH",
"150 347 OFFCURVE",
"122 376 OFFCURVE",
"122 419 CURVE SMOOTH"
);
},
{
closed = 1;
nodes = (
"879 700 OFFCURVE",
"898 737 OFFCURVE",
"936 762 CURVE",
"975 737 OFFCURVE",
"993 700 OFFCURVE",
"993 656 CURVE SMOOTH",
"993 609 OFFCURVE",
"968 585 OFFCURVE",
"936 585 CURVE SMOOTH",
"905 585 OFFCURVE",
"879 609 OFFCURVE",
"879 656 CURVE SMOOTH"
);
}
);
width = 1340;
}
);
unicode = 11FC3;
},
{
glyphname = OneFortieth;
lastChange = "2019-07-24 07:30:51 +0000";
layers = (
{
layerId = master01;
paths = (
{
closed = 1;
nodes = (
"49 47 OFFCURVE",
"140 -12 OFFCURVE",
"261 -12 CURVE SMOOTH",
"345 -12 OFFCURVE",
"411 6 OFFCURVE",
"452 57 CURVE SMOOTH",
"480 91 OFFCURVE",
"496 137 OFFCURVE",
"496 226 CURVE SMOOTH",
"496 258 LINE",
"641 258 LINE SMOOTH",
"686 258 OFFCURVE",
"712 271 OFFCURVE",
"724 296 CURVE",
"738 271 OFFCURVE",
"767 258 OFFCURVE",
"816 258 CURVE SMOOTH",
"861 258 LINE SMOOTH",
"890 258 OFFCURVE",
"912 264 OFFCURVE",
"927 278 CURVE",
"927 0 LINE",
"1005 0 LINE",
"1005 554 LINE",
"922 554 LINE",
"922 384 LINE SMOOTH",
"922 343 OFFCURVE",
"898 328 OFFCURVE",
"856 328 CURVE SMOOTH",
"831 328 LINE SMOOTH",
"789 328 OFFCURVE",
"765 343 OFFCURVE",
"765 384 CURVE SMOOTH",
"765 554 LINE",
"682 554 LINE",
"682 384 LINE SMOOTH",
"682 343 OFFCURVE",
"662 328 OFFCURVE",
"626 328 CURVE SMOOTH",
"496 328 LINE",
"496 482 LINE",
"623 482 LINE",
"623 554 LINE",
"160 554 LINE",
"160 303 LINE",
"82 274 OFFCURVE",
"49 221 OFFCURVE",
"49 152 CURVE SMOOTH"
);
},
{
closed = 1;
nodes = (
"135 191 OFFCURVE",
"149 215 OFFCURVE",
"178 232 CURVE SMOOTH",
"211 251 OFFCURVE",
"257 258 OFFCURVE",
"325 258 CURVE SMOOTH",
"411 258 LINE",
"411 213 LINE SMOOTH",
"411 94 OFFCURVE",
"356 60 OFFCURVE",
"269 60 CURVE SMOOTH",
"192 60 OFFCURVE",
"135 91 OFFCURVE",
"135 153 CURVE SMOOTH"
);
},
{
closed = 1;
nodes = (
"239 482 LINE",
"411 482 LINE",
"411 328 LINE",
"332 328 LINE SMOOTH",
"298 328 OFFCURVE",
"267 326 OFFCURVE",
"239 322 CURVE"
);
}
);
width = 1093;
}
);
unicode = 11FC4;
},
{
glyphname = OneThirtySecond;
lastChange = "2019-08-11 16:25:13 +0000";
layers = (
{
layerId = master01;
paths = (
{
closed = 1;
nodes = (
"49 47 OFFCURVE",
"140 -12 OFFCURVE",
"261 -12 CURVE SMOOTH",
"345 -12 OFFCURVE",
"411 6 OFFCURVE",
"452 57 CURVE SMOOTH",
"480 91 OFFCURVE",
"496 137 OFFCURVE",
"496 226 CURVE SMOOTH",
"496 258 LINE",
"641 258 LINE SMOOTH",
"693 258 OFFCURVE",
"719 275 OFFCURVE",
"729 308 CURVE",
"749 275 OFFCURVE",
"787 258 OFFCURVE",
"853 258 CURVE SMOOTH",
"856 258 LINE SMOOTH",
"951 258 OFFCURVE",
"1006 297 OFFCURVE",
"1012 390 CURVE",
"1033 369 OFFCURVE",
"1070 354 OFFCURVE",
"1119 354 CURVE SMOOTH",
"1225 354 OFFCURVE",
"1289 420 OFFCURVE",
"1289 527 CURVE SMOOTH",
"1289 645 OFFCURVE",
"1224 712 OFFCURVE",
"1104 733 CURVE",
"1084 659 LINE",
"1162 645 OFFCURVE",
"1205 601 OFFCURVE",
"1205 530 CURVE SMOOTH",
"1205 466 OFFCURVE",
"1172 425 OFFCURVE",
"1112 425 CURVE SMOOTH",
"1045 425 OFFCURVE",
"1015 463 OFFCURVE",
"1015 518 CURVE SMOOTH",
"1015 554 LINE",
"932 554 LINE",
"932 404 LINE SMOOTH",
"932 348 OFFCURVE",
"902 328 OFFCURVE",
"849 328 CURVE SMOOTH",
"843 328 LINE SMOOTH",
"793 328 OFFCURVE",
"765 348 OFFCURVE",
"765 404 CURVE SMOOTH",
"765 554 LINE",
"682 554 LINE",
"682 384 LINE SMOOTH",
"682 343 OFFCURVE",
"662 328 OFFCURVE",
"626 328 CURVE SMOOTH",
"496 328 LINE",
"496 482 LINE",
"623 482 LINE",
"623 554 LINE",
"160 554 LINE",
"160 303 LINE",
"82 274 OFFCURVE",
"49 221 OFFCURVE",
"49 152 CURVE SMOOTH"
);
},
{
closed = 1;
nodes = (
"135 191 OFFCURVE",
"149 215 OFFCURVE",
"178 232 CURVE SMOOTH",
"211 251 OFFCURVE",
"257 258 OFFCURVE",
"325 258 CURVE SMOOTH",
"411 258 LINE",
"411 213 LINE SMOOTH",
"411 94 OFFCURVE",
"356 60 OFFCURVE",
"269 60 CURVE SMOOTH",
"192 60 OFFCURVE",
"135 91 OFFCURVE",
"135 153 CURVE SMOOTH"
);
},
{
closed = 1;
nodes = (
"239 482 LINE",
"411 482 LINE",
"411 328 LINE",
"332 328 LINE SMOOTH",
"298 328 OFFCURVE",
"267 326 OFFCURVE",
"239 322 CURVE"
);
}
);
width = 1319;
}
);
unicode = 11FC5;
},
{
glyphname = ThreeEightieths;
lastChange = "2019-08-11 16:26:03 +0000";
layers = (
{
layerId = master01;
paths = (
{
closed = 1;
nodes = (
"174 0 LINE",
"174 482 LINE",
"344 482 LINE",
"344 144 LINE",
"430 144 LINE",
"430 246 LINE",
"459 269 OFFCURVE",
"500 289 OFFCURVE",
"543 289 CURVE SMOOTH",
"595 289 OFFCURVE",
"632 263 OFFCURVE",
"632 192 CURVE SMOOTH",
"632 146 OFFCURVE",
"617 105 OFFCURVE",
"595 72 CURVE",
"344 72 LINE",
"344 0 LINE",
"930 0 LINE SMOOTH",
"1042 0 OFFCURVE",
"1126 37 OFFCURVE",
"1126 134 CURVE SMOOTH",
"1126 166 OFFCURVE",
"1115 208 OFFCURVE",
"1100 242 CURVE",
"1183 235 OFFCURVE",
"1231 193 OFFCURVE",
"1231 120 CURVE SMOOTH",
"1231 44 OFFCURVE",
"1165 11 OFFCURVE",
"1081 -22 CURVE SMOOTH",
"1028 -43 LINE SMOOTH",
"892 -97 OFFCURVE",
"835 -149 OFFCURVE",
"835 -253 CURVE SMOOTH",
"835 -377 OFFCURVE",
"929 -451 OFFCURVE",
"1097 -451 CURVE SMOOTH",
"1257 -451 OFFCURVE",
"1355 -370 OFFCURVE",
"1355 -252 CURVE SMOOTH",
"1355 -166 OFFCURVE",
"1314 -112 OFFCURVE",
"1226 -70 CURVE",
"1184 -135 LINE",
"1239 -163 OFFCURVE",
"1269 -197 OFFCURVE",
"1269 -252 CURVE SMOOTH",
"1269 -329 OFFCURVE",
"1198 -377 OFFCURVE",
"1097 -377 CURVE SMOOTH",
"988 -377 OFFCURVE",
"921 -331 OFFCURVE",
"921 -254 CURVE SMOOTH",
"921 -193 OFFCURVE",
"955 -150 OFFCURVE",
"1069 -108 CURVE SMOOTH",
"1104 -95 LINE SMOOTH",
"1233 -47 OFFCURVE",
"1317 5 OFFCURVE",
"1317 123 CURVE SMOOTH",
"1317 246 OFFCURVE",
"1210 310 OFFCURVE",
"1058 310 CURVE SMOOTH",
"909 310 OFFCURVE",
"817 249 OFFCURVE",
"817 144 CURVE SMOOTH",
"817 112 OFFCURVE",
"828 83 OFFCURVE",
"847 66 CURVE",
"676 66 LINE",
"701 104 OFFCURVE",
"718 151 OFFCURVE",
"718 201 CURVE SMOOTH",
"718 302 OFFCURVE",
"658 362 OFFCURVE",
"558 362 CURVE SMOOTH",
"499 362 OFFCURVE",
"456 340 OFFCURVE",
"430 324 CURVE",
"430 482 LINE",
"604 482 LINE",
"604 554 LINE",
"88 554 LINE",
"88 0 LINE"
);
},
{
closed = 1;
nodes = (
"898 208 OFFCURVE",
"951 242 OFFCURVE",
"1026 244 CURVE",
"1042 211 OFFCURVE",
"1051 175 OFFCURVE",
"1051 143 CURVE SMOOTH",
"1051 88 OFFCURVE",
"1018 66 OFFCURVE",
"972 66 CURVE SMOOTH",
"925 66 OFFCURVE",
"898 92 OFFCURVE",
"898 140 CURVE SMOOTH"
);
}
);
width = 1415;
}
);
unicode = 11FC6;
},
{
glyphname = ThreeSixtyFourths;
lastChange = "2019-07-24 07:31:16 +0000";
layers = (
{
layerId = master01;
paths = (
{
closed = 1;
nodes = (
"49 47 OFFCURVE",
"140 -12 OFFCURVE",
"261 -12 CURVE SMOOTH",
"345 -12 OFFCURVE",
"411 6 OFFCURVE",
"452 57 CURVE SMOOTH",
"480 91 OFFCURVE",
"496 136 OFFCURVE",
"496 226 CURVE SMOOTH",
"496 258 LINE",
"706 258 OFFCURVE",
"818 195 OFFCURVE",
"823 52 CURVE",
"795 86 OFFCURVE",
"751 117 OFFCURVE",
"689 117 CURVE SMOOTH",
"603 117 OFFCURVE",
"549 65 OFFCURVE",
"548 -14 CURVE SMOOTH",
"547 -96 OFFCURVE",
"610 -148 OFFCURVE",
"702 -148 CURVE SMOOTH",
"778 -148 OFFCURVE",
"833 -116 OFFCURVE",
"864 -63 CURVE",
"900 -89 OFFCURVE",
"945 -107 OFFCURVE",
"1002 -107 CURVE SMOOTH",
"1154 -107 OFFCURVE",
"1235 5 OFFCURVE",
"1235 215 CURVE SMOOTH",
"1235 340 OFFCURVE",
"1189 461 OFFCURVE",
"1093 566 CURVE",
"1022 515 LINE",
"1104 427 OFFCURVE",
"1146 322 OFFCURVE",
"1146 215 CURVE SMOOTH",
"1146 40 OFFCURVE",
"1085 -35 OFFCURVE",
"993 -35 CURVE SMOOTH",
"950 -35 OFFCURVE",
"918 -24 OFFCURVE",
"888 -2 CURVE",
"891 17 OFFCURVE",
"893 40 OFFCURVE",
"893 61 CURVE SMOOTH",
"893 248 OFFCURVE",
"749 322 OFFCURVE",
"496 328 CURVE",
"496 482 LINE",
"683 482 LINE",
"683 554 LINE",
"160 554 LINE",
"160 303 LINE",
"82 274 OFFCURVE",
"49 221 OFFCURVE",
"49 152 CURVE SMOOTH"
);
},
{
closed = 1;
nodes = (
"135 191 OFFCURVE",
"149 215 OFFCURVE",
"178 232 CURVE SMOOTH",
"211 251 OFFCURVE",
"257 258 OFFCURVE",
"325 258 CURVE SMOOTH",
"411 258 LINE",
"411 213 LINE SMOOTH",
"411 94 OFFCURVE",
"356 60 OFFCURVE",
"269 60 CURVE SMOOTH",
"192 60 OFFCURVE",
"135 91 OFFCURVE",
"135 153 CURVE SMOOTH"
);
},
{
closed = 1;
nodes = (
"239 482 LINE",
"411 482 LINE",
"411 328 LINE",
"332 328 LINE SMOOTH",
"298 328 OFFCURVE",
"267 326 OFFCURVE",
"239 322 CURVE"
);
},
{
closed = 1;
nodes = (
"620 23 OFFCURVE",
"646 53 OFFCURVE",
"693 53 CURVE SMOOTH",
"734 53 OFFCURVE",
"771 27 OFFCURVE",
"812 -17 CURVE",
"797 -55 OFFCURVE",
"760 -86 OFFCURVE",
"705 -86 CURVE SMOOTH",
"653 -86 OFFCURVE",
"620 -58 OFFCURVE",
"620 -16 CURVE SMOOTH"
);
}
);
width = 1305;
}
);
unicode = 11FC7;
},
{
glyphname = OneTwentieth;
lastChange = "2019-07-24 07:31:17 +0000";
layers = (
{
layerId = master01;
paths = (
{
closed = 1;
nodes = (
"613 0 OFFCURVE",
"686 56 OFFCURVE",
"686 185 CURVE SMOOTH",
"686 554 LINE",
"600 554 LINE",
"600 191 LINE SMOOTH",
"600 110 OFFCURVE",
"559 72 OFFCURVE",
"472 72 CURVE SMOOTH",
"298 72 LINE SMOOTH",
"211 72 OFFCURVE",
"170 110 OFFCURVE",
"170 191 CURVE SMOOTH",
"170 554 LINE",
"84 554 LINE",
"84 185 LINE SMOOTH",
"84 56 OFFCURVE",
"157 0 OFFCURVE",
"292 0 CURVE SMOOTH",
"478 0 LINE SMOOTH"
);
}
);
width = 770;
}
);
unicode = 11FC8;
},
{
glyphname = OneSixteenth_1;
lastChange = "2019-07-24 07:31:27 +0000";
layers = (
{
guideLines = (
{
angle = 90;
position = "{286, 114}";
},
{
angle = 90;
position = "{233, 114}";
},
{
angle = 90;
position = "{339, 114}";
},
{
angle = 90;
position = "{173, 114}";
},
{
angle = 90;
position = "{400, 114}";
}
);
layerId = master01;
paths = (
{
closed = 1;
nodes = (
"68 42 OFFCURVE",
"124 -12 OFFCURVE",
"237 -12 CURVE SMOOTH",
"369 -12 LINE SMOOTH",
"472 -12 OFFCURVE",
"526 29 OFFCURVE",
"528 127 CURVE",
"528 235 LINE",
"514 205 LINE",
"521 152 OFFCURVE",
"588 111 OFFCURVE",
"678 111 CURVE SMOOTH",
"807 111 OFFCURVE",
"883 191 OFFCURVE",
"883 322 CURVE SMOOTH",
"883 460 OFFCURVE",
"804 541 OFFCURVE",
"655 566 CURVE",
"636 489 LINE",
"740 471 OFFCURVE",
"794 413 OFFCURVE",
"794 326 CURVE SMOOTH",
"794 242 OFFCURVE",
"746 187 OFFCURVE",
"660 187 CURVE SMOOTH",
"572 187 OFFCURVE",
"532 243 OFFCURVE",
"532 318 CURVE SMOOTH",
"532 373 LINE",
"449 373 LINE",
"449 144 LINE SMOOTH",
"449 82 OFFCURVE",
"418 61 OFFCURVE",
"363 61 CURVE SMOOTH",
"240 61 LINE SMOOTH",
"186 61 OFFCURVE",
"151 82 OFFCURVE",
"151 144 CURVE SMOOTH",
"151 373 LINE",
"68 373 LINE",
"68 132 LINE"
);
}
);
width = 923;
}
);
unicode = 11FC9;
},
{
glyphname = OneSixteenth_2;
lastChange = "2019-07-24 07:31:29 +0000";
layers = (
{
layerId = master01;
paths = (
{
closed = 1;
nodes = (
"84 56 OFFCURVE",
"157 0 OFFCURVE",
"292 0 CURVE SMOOTH",
"478 0 LINE SMOOTH",
"613 0 OFFCURVE",
"686 56 OFFCURVE",
"686 185 CURVE SMOOTH",
"686 405 LINE SMOOTH",
"686 528 OFFCURVE",
"761 587 OFFCURVE",
"868 587 CURVE SMOOTH",
"974 587 OFFCURVE",
"1023 530 OFFCURVE",
"1023 446 CURVE SMOOTH",
"1023 380 OFFCURVE",
"984 321 OFFCURVE",
"943 284 CURVE SMOOTH",
"881 227 LINE SMOOTH",
"806 158 OFFCURVE",
"766 98 OFFCURVE",
"766 11 CURVE SMOOTH",
"766 -107 OFFCURVE",
"852 -201 OFFCURVE",
"1011 -201 CURVE SMOOTH",
"1159 -201 OFFCURVE",
"1243 -110 OFFCURVE",
"1243 19 CURVE SMOOTH",
"1243 137 OFFCURVE",
"1188 214 OFFCURVE",
"1091 263 CURVE",
"1043 193 LINE",
"1120 152 OFFCURVE",
"1157 103 OFFCURVE",
"1157 22 CURVE SMOOTH",
"1157 -69 OFFCURVE",
"1101 -125 OFFCURVE",
"1011 -125 CURVE SMOOTH",
"910 -125 OFFCURVE",
"853 -69 OFFCURVE",
"853 8 CURVE SMOOTH",
"853 70 OFFCURVE",
"880 111 OFFCURVE",
"934 163 CURVE SMOOTH",
"993 219 LINE SMOOTH",
"1074 295 OFFCURVE",
"1113 350 OFFCURVE",
"1113 446 CURVE SMOOTH",
"1113 580 OFFCURVE",
"1022 663 OFFCURVE",
"868 663 CURVE SMOOTH",
"690 663 OFFCURVE",
"600 555 OFFCURVE",
"600 409 CURVE SMOOTH",
"600 191 LINE SMOOTH",
"600 110 OFFCURVE",
"559 72 OFFCURVE",
"472 72 CURVE SMOOTH",
"298 72 LINE SMOOTH",
"211 72 OFFCURVE",
"170 110 OFFCURVE",
"170 191 CURVE SMOOTH",
"170 554 LINE",
"84 554 LINE",
"84 185 LINE SMOOTH"
);
}
);
width = 1283;
}
);
unicode = 11FCA;
},
{
glyphname = OneTenth;
lastChange = "2019-07-24 07:31:30 +0000";
layers = (
{
layerId = master01;
paths = (
{
closed = 1;
nodes = (
"68 56 OFFCURVE",
"147 -12 OFFCURVE",
"273 -12 CURVE SMOOTH",
"355 -12 OFFCURVE",
"419 20 OFFCURVE",
"444 77 CURVE",
"468 21 OFFCURVE",
"519 -12 OFFCURVE",
"609 -12 CURVE SMOOTH",
"711 -12 OFFCURVE",
"785 52 OFFCURVE",
"785 171 CURVE SMOOTH",
"785 240 OFFCURVE",
"771 286 OFFCURVE",
"748 334 CURVE",
"663 305 LINE",
"684 271 OFFCURVE",
"698 214 OFFCURVE",
"698 174 CURVE SMOOTH",
"698 89 OFFCURVE",
"654 61 OFFCURVE",
"605 61 CURVE SMOOTH",
"514 61 OFFCURVE",
"486 114 OFFCURVE",
"486 202 CURVE SMOOTH",
"486 258 LINE",
"399 258 LINE",
"399 186 LINE SMOOTH",
"399 102 OFFCURVE",
"362 61 OFFCURVE",
"279 61 CURVE SMOOTH",
"195 61 OFFCURVE",
"155 106 OFFCURVE",
"155 169 CURVE SMOOTH",
"155 243 OFFCURVE",
"206 282 OFFCURVE",
"297 305 CURVE SMOOTH",
"383 327 LINE SMOOTH",
"521 362 OFFCURVE",
"596 425 OFFCURVE",
"596 554 CURVE SMOOTH",
"596 628 OFFCURVE",
"567 693 OFFCURVE",
"498 729 CURVE SMOOTH",
"456 751 OFFCURVE",
"401 763 OFFCURVE",
"330 763 CURVE SMOOTH",
"183 763 OFFCURVE",
"108 696 OFFCURVE",
"108 608 CURVE SMOOTH",
"108 508 OFFCURVE",
"174 461 OFFCURVE",
"257 461 CURVE SMOOTH",
"346 461 OFFCURVE",
"403 513 OFFCURVE",
"403 595 CURVE SMOOTH",
"403 623 OFFCURVE",
"398 659 OFFCURVE",
"383 694 CURVE",
"463 684 OFFCURVE",
"513 632 OFFCURVE",
"513 555 CURVE SMOOTH",
"513 458 OFFCURVE",
"448 416 OFFCURVE",
"358 393 CURVE SMOOTH",
"259 368 LINE SMOOTH",
"136 337 OFFCURVE",
"68 277 OFFCURVE",
"68 169 CURVE SMOOTH"
);
},
{
closed = 1;
nodes = (
"180 664 OFFCURVE",
"235 695 OFFCURVE",
"313 697 CURVE",
"327 668 OFFCURVE",
"333 638 OFFCURVE",
"333 609 CURVE SMOOTH",
"333 550 OFFCURVE",
"301 527 OFFCURVE",
"257 527 CURVE SMOOTH",
"208 527 OFFCURVE",
"180 558 OFFCURVE",
"180 603 CURVE SMOOTH"
);
}
);
width = 825;
}
);
unicode = 11FCB;
},
{
glyphname = OneEighth;
lastChange = "2019-07-24 07:31:32 +0000";
layers = (
{
layerId = master01;
paths = (
{
closed = 1;
nodes = (
"57 63 OFFCURVE",
"142 -12 OFFCURVE",
"249 -12 CURVE SMOOTH",
"356 -12 OFFCURVE",
"422 54 OFFCURVE",
"422 165 CURVE SMOOTH",
"422 265 OFFCURVE",
"357 328 OFFCURVE",
"261 328 CURVE SMOOTH",
"218 328 OFFCURVE",
"175 313 OFFCURVE",
"140 290 CURVE",
"158 408 OFFCURVE",
"237 492 OFFCURVE",
"360 492 CURVE SMOOTH",
"484 492 OFFCURVE",
"563 411 OFFCURVE",
"563 269 CURVE SMOOTH",
"563 178 OFFCURVE",
"542 109 OFFCURVE",
"511 63 CURVE",
"515 0 LINE",
"896 0 LINE",
"896 327 LINE SMOOTH",
"896 386 OFFCURVE",
"899 434 OFFCURVE",
"921 463 CURVE SMOOTH",
"935 482 OFFCURVE",
"955 494 OFFCURVE",
"986 494 CURVE SMOOTH",
"1017 494 OFFCURVE",
"1038 481 OFFCURVE",
"1051 461 CURVE SMOOTH",
"1071 431 OFFCURVE",
"1076 386 OFFCURVE",
"1076 321 CURVE SMOOTH",
"1076 0 LINE",
"1162 0 LINE",
"1162 319 LINE SMOOTH",
"1162 391 OFFCURVE",
"1171 427 OFFCURVE",
"1198 458 CURVE SMOOTH",
"1220 483 OFFCURVE",
"1252 494 OFFCURVE",
"1287 494 CURVE SMOOTH",
"1376 494 OFFCURVE",
"1440 428 OFFCURVE",
"1440 247 CURVE SMOOTH",
"1440 108 OFFCURVE",
"1407 -7 OFFCURVE",
"1356 -84 CURVE",
"635 -84 LINE SMOOTH",
"566 -84 OFFCURVE",
"520 -115 OFFCURVE",
"520 -174 CURVE SMOOTH",
"520 -289 OFFCURVE",
"710 -331 OFFCURVE",
"899 -331 CURVE SMOOTH",
"919 -331 LINE SMOOTH",
"1134 -331 OFFCURVE",
"1293 -277 OFFCURVE",
"1416 -156 CURVE",
"1771 -156 LINE",
"1771 554 LINE",
"1685 554 LINE",
"1685 -84 LINE",
"1457 -84 LINE",
"1500 -2 OFFCURVE",
"1529 110 OFFCURVE",
"1529 244 CURVE SMOOTH",
"1529 449 OFFCURVE",
"1446 566 OFFCURVE",
"1294 566 CURVE SMOOTH",
"1207 566 OFFCURVE",
"1150 527 OFFCURVE",
"1123 472 CURVE",
"1094 533 OFFCURVE",
"1047 566 OFFCURVE",
"979 566 CURVE SMOOTH",
"929 566 OFFCURVE",
"891 552 OFFCURVE",
"863 524 CURVE SMOOTH",
"822 483 OFFCURVE",
"810 438 OFFCURVE",
"810 341 CURVE SMOOTH",
"810 72 LINE",
"603 72 LINE",
"630 131 OFFCURVE",
"651 194 OFFCURVE",
"651 280 CURVE SMOOTH",
"651 437 OFFCURVE",
"567 566 OFFCURVE",
"364 566 CURVE SMOOTH",
"199 566 OFFCURVE",
"57 457 OFFCURVE",
"57 243 CURVE SMOOTH"
);
},
{
closed = 1;
nodes = (
"169 240 OFFCURVE",
"206 258 OFFCURVE",
"247 258 CURVE SMOOTH",
"302 258 OFFCURVE",
"340 221 OFFCURVE",
"340 155 CURVE SMOOTH",
"340 91 OFFCURVE",
"305 56 OFFCURVE",
"253 56 CURVE SMOOTH",
"191 56 OFFCURVE",
"143 97 OFFCURVE",
"137 212 CURVE"
);
},
{
closed = 1;
nodes = (
"603 -166 OFFCURVE",
"611 -156 OFFCURVE",
"635 -156 CURVE SMOOTH",
"1305 -156 LINE",
"1201 -228 OFFCURVE",
"1076 -258 OFFCURVE",
"921 -258 CURVE SMOOTH",
"910 -258 LINE SMOOTH",
"705 -258 OFFCURVE",
"603 -219 OFFCURVE",
"603 -177 CURVE SMOOTH"
);
}
);
width = 1859;
}
);
unicode = 11FCC;
},
{
glyphname = ThreeTwentieths;
lastChange = "2019-07-24 07:31:33 +0000";
layers = (
{
guideLines = (
{
angle = 90;
position = "{58, 658}";
}
);
layerId = master01;
paths = (
{
closed = 1;
nodes = (
"174 0 LINE",
"174 482 LINE",
"348 482 LINE",
"348 0 LINE",
"434 0 LINE",
"434 240 LINE",
"455 267 OFFCURVE",
"491 289 OFFCURVE",
"530 289 CURVE SMOOTH",
"583 289 OFFCURVE",
"602 260 OFFCURVE",
"608 207 CURVE SMOOTH",
"616 131 LINE SMOOTH",
"625 48 OFFCURVE",
"673 -12 OFFCURVE",
"780 -12 CURVE SMOOTH",
"929 -12 OFFCURVE",
"995 119 OFFCURVE",
"995 376 CURVE SMOOTH",
"995 727 OFFCURVE",
"792 843 OFFCURVE",
"500 843 CURVE SMOOTH",
"408 843 OFFCURVE",
"326 831 OFFCURVE",
"253 812 CURVE",
"265 743 LINE",
"331 758 OFFCURVE",
"409 768 OFFCURVE",
"499 768 CURVE SMOOTH",
"742 768 OFFCURVE",
"906 674 OFFCURVE",
"906 374 CURVE SMOOTH",
"906 150 OFFCURVE",
"857 61 OFFCURVE",
"780 61 CURVE SMOOTH",
"730 61 OFFCURVE",
"703 89 OFFCURVE",
"697 149 CURVE SMOOTH",
"689 226 LINE SMOOTH",
"681 306 OFFCURVE",
"644 362 OFFCURVE",
"552 362 CURVE SMOOTH",
"504 362 OFFCURVE",
"462 343 OFFCURVE",
"434 316 CURVE",
"434 482 LINE",
"609 482 LINE",
"609 554 LINE",
"88 554 LINE",
"88 0 LINE"
);
}
);
width = 1058;
}
);
unicode = 11FCD;
},
{
glyphname = ThreeSixteenths;
lastChange = "2019-07-24 07:31:35 +0000";
layers = (
{
layerId = master01;
paths = (
{
closed = 1;
nodes = (
"174 0 LINE",
"174 482 LINE",
"348 482 LINE",
"348 0 LINE",
"434 0 LINE",
"434 239 LINE",
"460 266 OFFCURVE",
"505 289 OFFCURVE",
"555 289 CURVE SMOOTH",
"625 289 OFFCURVE",
"658 259 OFFCURVE",
"658 203 CURVE SMOOTH",
"658 162 OFFCURVE",
"637 122 OFFCURVE",
"614 87 CURVE SMOOTH",
"595 58 LINE SMOOTH",
"560 4 OFFCURVE",
"518 -59 OFFCURVE",
"518 -140 CURVE SMOOTH",
"518 -248 OFFCURVE",
"579 -312 OFFCURVE",
"708 -312 CURVE SMOOTH",
"777 -312 LINE SMOOTH",
"870 -312 OFFCURVE",
"920 -273 OFFCURVE",
"922 -180 CURVE SMOOTH",
"922 -160 LINE",
"945 -188 OFFCURVE",
"991 -208 OFFCURVE",
"1049 -208 CURVE SMOOTH",
"1158 -208 OFFCURVE",
"1223 -140 OFFCURVE",
"1223 -29 CURVE SMOOTH",
"1223 90 OFFCURVE",
"1156 157 OFFCURVE",
"1029 178 CURVE",
"1009 104 LINE",
"1093 90 OFFCURVE",
"1137 46 OFFCURVE",
"1137 -26 CURVE SMOOTH",
"1137 -92 OFFCURVE",
"1100 -135 OFFCURVE",
"1034 -135 CURVE SMOOTH",
"959 -135 OFFCURVE",
"925 -91 OFFCURVE",
"925 -32 CURVE SMOOTH",
"925 4 LINE",
"842 4 LINE",
"842 -156 LINE SMOOTH",
"842 -219 OFFCURVE",
"815 -242 OFFCURVE",
"768 -242 CURVE SMOOTH",
"712 -242 LINE SMOOTH",
"643 -242 OFFCURVE",
"601 -214 OFFCURVE",
"601 -136 CURVE SMOOTH",
"601 -81 OFFCURVE",
"631 -38 OFFCURVE",
"667 19 CURVE SMOOTH",
"681 42 LINE SMOOTH",
"715 98 OFFCURVE",
"743 151 OFFCURVE",
"743 206 CURVE SMOOTH",
"743 298 OFFCURVE",
"688 362 OFFCURVE",
"575 362 CURVE SMOOTH",
"516 362 OFFCURVE",
"467 342 OFFCURVE",
"434 315 CURVE",
"434 482 LINE",
"609 482 LINE",
"609 554 LINE",
"88 554 LINE",
"88 0 LINE"
);
}
);
width = 1253;
}
);
unicode = 11FCE;
},
{
glyphname = OneFifth;
lastChange = "2019-07-24 07:31:36 +0000";
layers = (
{
layerId = master01;
paths = (
{
closed = 1;
nodes = (
"49 47 OFFCURVE",
"140 -12 OFFCURVE",
"261 -12 CURVE SMOOTH",
"345 -12 OFFCURVE",
"411 6 OFFCURVE",
"452 57 CURVE SMOOTH",
"480 91 OFFCURVE",
"496 136 OFFCURVE",
"496 226 CURVE SMOOTH",
"496 258 LINE",
"584 258 OFFCURVE",
"613 230 OFFCURVE",
"638 165 CURVE SMOOTH",
"654 123 LINE SMOOTH",
"686 40 OFFCURVE",
"737 -12 OFFCURVE",
"829 -12 CURVE SMOOTH",
"956 -12 OFFCURVE",
"1015 75 OFFCURVE",
"1015 239 CURVE SMOOTH",
"1015 354 OFFCURVE",
"976 468 OFFCURVE",
"895 566 CURVE",
"823 515 LINE",
"891 433 OFFCURVE",
"926 335 OFFCURVE",
"926 237 CURVE SMOOTH",
"926 113 OFFCURVE",
"885 61 OFFCURVE",
"826 61 CURVE SMOOTH",
"775 61 OFFCURVE",
"748 96 OFFCURVE",
"728 152 CURVE SMOOTH",
"716 185 LINE SMOOTH",
"679 287 OFFCURVE",
"636 327 OFFCURVE",
"496 328 CURVE",
"496 482 LINE",
"683 482 LINE",
"683 554 LINE",
"160 554 LINE",
"160 303 LINE",
"82 274 OFFCURVE",
"49 221 OFFCURVE",
"49 152 CURVE SMOOTH"
);
},
{
closed = 1;
nodes = (
"135 191 OFFCURVE",
"149 215 OFFCURVE",
"178 232 CURVE SMOOTH",
"211 251 OFFCURVE",
"257 258 OFFCURVE",
"325 258 CURVE SMOOTH",
"411 258 LINE",
"411 213 LINE SMOOTH",
"411 94 OFFCURVE",
"356 60 OFFCURVE",
"269 60 CURVE SMOOTH",
"192 60 OFFCURVE",
"135 91 OFFCURVE",
"135 153 CURVE SMOOTH"
);
},
{
closed = 1;
nodes = (
"239 482 LINE",
"411 482 LINE",
"411 328 LINE",
"332 328 LINE SMOOTH",
"298 328 OFFCURVE",
"267 326 OFFCURVE",
"239 322 CURVE"
);
}
);
width = 1078;
}
);
unicode = 11FCF;
},
{
glyphname = OneQuarter;
lastChange = "2019-07-24 07:31:37 +0000";
layers = (
{
layerId = master01;
paths = (
{
closed = 1;
nodes = (
"30 508 OFFCURVE",
"96 461 OFFCURVE",
"179 461 CURVE SMOOTH",
"268 461 OFFCURVE",
"325 513 OFFCURVE",
"325 595 CURVE SMOOTH",
"325 623 OFFCURVE",
"320 659 OFFCURVE",
"305 694 CURVE",
"385 684 OFFCURVE",
"435 633 OFFCURVE",
"435 547 CURVE SMOOTH",
"435 492 OFFCURVE",
"412 451 OFFCURVE",
"389 407 CURVE SMOOTH",
"352 337 LINE SMOOTH",
"326 289 OFFCURVE",
"304 246 OFFCURVE",
"304 189 CURVE SMOOTH",
"304 66 OFFCURVE",
"389 0 OFFCURVE",
"536 0 CURVE SMOOTH",
"902 0 LINE",
"902 554 LINE",
"816 554 LINE",
"816 72 LINE",
"546 72 LINE SMOOTH",
"436 72 OFFCURVE",
"391 118 OFFCURVE",
"391 195 CURVE SMOOTH",
"391 240 OFFCURVE",
"407 271 OFFCURVE",
"425 303 CURVE SMOOTH",
"464 372 LINE SMOOTH",
"498 432 OFFCURVE",
"518 489 OFFCURVE",
"518 555 CURVE SMOOTH",
"518 628 OFFCURVE",
"486 690 OFFCURVE",
"419 727 CURVE SMOOTH",
"379 749 OFFCURVE",
"323 763 OFFCURVE",
"252 763 CURVE SMOOTH",
"105 763 OFFCURVE",
"30 696 OFFCURVE",
"30 608 CURVE SMOOTH"
);
},
{
closed = 1;
nodes = (
"102 664 OFFCURVE",
"157 695 OFFCURVE",
"235 697 CURVE",
"249 668 OFFCURVE",
"255 638 OFFCURVE",
"255 609 CURVE SMOOTH",
"255 550 OFFCURVE",
"223 527 OFFCURVE",
"179 527 CURVE SMOOTH",
"130 527 OFFCURVE",
"102 558 OFFCURVE",
"102 603 CURVE SMOOTH"
);
}
);
width = 990;
}
);
unicode = 11FD0;
},
{
glyphname = OneHalf_1;
lastChange = "2019-07-24 07:31:38 +0000";
layers = (
{
layerId = master01;
paths = (
{
closed = 1;
nodes = (
"40 -131 OFFCURVE",
"46 -170 OFFCURVE",
"55 -194 CURVE",
"140 -188 LINE",
"132 -159 OFFCURVE",
"127 -128 OFFCURVE",
"127 -95 CURVE SMOOTH",
"127 -7 OFFCURVE",
"180 29 OFFCURVE",
"265 65 CURVE SMOOTH",
"353 102 LINE SMOOTH",
"487 158 OFFCURVE",
"567 217 OFFCURVE",
"567 357 CURVE SMOOTH",
"567 436 OFFCURVE",
"534 502 OFFCURVE",
"458 540 CURVE SMOOTH",
"417 560 OFFCURVE",
"363 573 OFFCURVE",
"291 573 CURVE SMOOTH",
"144 573 OFFCURVE",
"69 506 OFFCURVE",
"69 418 CURVE SMOOTH",
"69 318 OFFCURVE",
"135 271 OFFCURVE",
"218 271 CURVE SMOOTH",
"307 271 OFFCURVE",
"364 323 OFFCURVE",
"364 405 CURVE SMOOTH",
"364 433 OFFCURVE",
"359 469 OFFCURVE",
"344 504 CURVE",
"430 494 OFFCURVE",
"484 441 OFFCURVE",
"484 358 CURVE SMOOTH",
"484 248 OFFCURVE",
"413 203 OFFCURVE",
"326 168 CURVE SMOOTH",
"227 128 LINE SMOOTH",
"108 80 OFFCURVE",
"40 26 OFFCURVE",
"40 -94 CURVE SMOOTH"
);
},
{
closed = 1;
nodes = (
"141 474 OFFCURVE",
"196 505 OFFCURVE",
"274 507 CURVE",
"288 478 OFFCURVE",
"294 448 OFFCURVE",
"294 419 CURVE SMOOTH",
"294 360 OFFCURVE",
"262 337 OFFCURVE",
"218 337 CURVE SMOOTH",
"169 337 OFFCURVE",
"141 368 OFFCURVE",
"141 413 CURVE SMOOTH"
);
}
);
width = 607;
}
);
unicode = 11FD1;
},
{
glyphname = OneHalf_2;
lastChange = "2019-07-24 07:31:40 +0000";
layers = (
{
layerId = master01;
paths = (
{
closed = 1;
nodes = (
"60 -26 OFFCURVE",
"254 -251 OFFCURVE",
"599 -251 CURVE SMOOTH",
"610 -251 LINE SMOOTH",
"858 -251 OFFCURVE",
"1065 -112 OFFCURVE",
"1065 112 CURVE SMOOTH",
"1065 247 OFFCURVE",
"996 328 OFFCURVE",
"868 328 CURVE SMOOTH",
"821 328 OFFCURVE",
"781 315 OFFCURVE",
"752 291 CURVE",
"760 315 OFFCURVE",
"764 340 OFFCURVE",
"764 367 CURVE SMOOTH",
"764 483 OFFCURVE",
"702 566 OFFCURVE",
"563 566 CURVE SMOOTH",
"427 566 OFFCURVE",
"345 482 OFFCURVE",
"345 346 CURVE SMOOTH",
"345 283 OFFCURVE",
"367 223 OFFCURVE",
"389 177 CURVE",
"468 194 LINE",
"444 245 OFFCURVE",
"431 293 OFFCURVE",
"431 342 CURVE SMOOTH",
"431 437 OFFCURVE",
"483 492 OFFCURVE",
"562 492 CURVE SMOOTH",
"642 492 OFFCURVE",
"683 445 OFFCURVE",
"683 358 CURVE SMOOTH",
"683 303 OFFCURVE",
"665 251 OFFCURVE",
"632 200 CURVE SMOOTH",
"623 186 LINE",
"694 137 LINE",
"735 211 OFFCURVE",
"779 252 OFFCURVE",
"846 252 CURVE SMOOTH",
"931 252 OFFCURVE",
"977 200 OFFCURVE",
"977 110 CURVE SMOOTH",
"977 -58 OFFCURVE",
"824 -173 OFFCURVE",
"605 -173 CURVE SMOOTH",
"318 -173 OFFCURVE",
"150 6 OFFCURVE",
"150 261 CURVE SMOOTH",
"150 269 LINE SMOOTH",
"150 572 OFFCURVE",
"328 755 OFFCURVE",
"605 755 CURVE SMOOTH",
"776 755 OFFCURVE",
"886 697 OFFCURVE",
"959 612 CURVE",
"1012 662 LINE",
"935 762 OFFCURVE",
"804 831 OFFCURVE",
"611 833 CURVE SMOOTH",
"601 833 LINE SMOOTH",
"265 833 OFFCURVE",
"60 607 OFFCURVE",
"60 277 CURVE SMOOTH",
"60 253 LINE SMOOTH"
);
}
);
width = 1105;
}
);
unicode = 11FD2;
},
{
glyphname = ThreeQuarters;
lastChange = "2019-07-24 07:31:41 +0000";
layers = (
{
layerId = master01;
paths = (
{
closed = 1;
nodes = (
"57 63 OFFCURVE",
"142 -12 OFFCURVE",
"249 -12 CURVE SMOOTH",
"356 -12 OFFCURVE",
"422 54 OFFCURVE",
"422 165 CURVE SMOOTH",
"422 265 OFFCURVE",
"357 328 OFFCURVE",
"261 328 CURVE SMOOTH",
"218 328 OFFCURVE",
"175 313 OFFCURVE",
"140 290 CURVE",
"158 410 OFFCURVE",
"242 492 OFFCURVE",
"380 492 CURVE SMOOTH",
"509 492 OFFCURVE",
"591 424 OFFCURVE",
"620 297 CURVE",
"553 268 OFFCURVE",
"524 217 OFFCURVE",
"524 152 CURVE SMOOTH",
"524 47 OFFCURVE",
"615 -12 OFFCURVE",
"736 -12 CURVE SMOOTH",
"820 -12 OFFCURVE",
"885 6 OFFCURVE",
"927 57 CURVE SMOOTH",
"955 91 OFFCURVE",
"971 136 OFFCURVE",
"971 226 CURVE SMOOTH",
"971 257 LINE",
"1070 253 OFFCURVE",
"1166 223 OFFCURVE",
"1166 105 CURVE SMOOTH",
"1166 55 OFFCURVE",
"1152 16 OFFCURVE",
"1125 -13 CURVE SMOOTH",
"1079 -63 OFFCURVE",
"1007 -84 OFFCURVE",
"829 -84 CURVE SMOOTH",
"720 -84 LINE SMOOTH",
"653 -84 OFFCURVE",
"614 -94 OFFCURVE",
"579 -119 CURVE SMOOTH",
"545 -144 OFFCURVE",
"522 -184 OFFCURVE",
"522 -243 CURVE SMOOTH",
"522 -266 OFFCURVE",
"525 -297 OFFCURVE",
"529 -321 CURVE",
"611 -317 LINE",
"609 -301 OFFCURVE",
"608 -283 OFFCURVE",
"608 -263 CURVE SMOOTH",
"608 -219 OFFCURVE",
"620 -194 OFFCURVE",
"642 -179 CURVE SMOOTH",
"664 -164 OFFCURVE",
"691 -156 OFFCURVE",
"747 -156 CURVE SMOOTH",
"860 -156 LINE SMOOTH",
"1004 -156 OFFCURVE",
"1090 -141 OFFCURVE",
"1156 -94 CURVE SMOOTH",
"1218 -50 OFFCURVE",
"1252 9 OFFCURVE",
"1252 98 CURVE SMOOTH",
"1252 265 OFFCURVE",
"1135 324 OFFCURVE",
"971 328 CURVE",
"971 482 LINE",
"1158 482 LINE",
"1158 554 LINE",
"647 554 LINE",
"647 409 LINE",
"611 495 OFFCURVE",
"521 566 OFFCURVE",
"378 566 CURVE SMOOTH",
"183 566 OFFCURVE",
"57 437 OFFCURVE",
"57 243 CURVE SMOOTH"
);
},
{
closed = 1;
nodes = (
"169 240 OFFCURVE",
"206 258 OFFCURVE",
"247 258 CURVE SMOOTH",
"302 258 OFFCURVE",
"340 221 OFFCURVE",
"340 155 CURVE SMOOTH",
"340 91 OFFCURVE",
"305 56 OFFCURVE",
"253 56 CURVE SMOOTH",
"191 56 OFFCURVE",
"143 97 OFFCURVE",
"137 212 CURVE"
);
},
{
closed = 1;
nodes = (
"610 191 OFFCURVE",
"624 215 OFFCURVE",
"653 232 CURVE SMOOTH",
"686 251 OFFCURVE",
"732 258 OFFCURVE",
"800 258 CURVE SMOOTH",
"886 258 LINE",
"886 213 LINE SMOOTH",
"886 94 OFFCURVE",
"831 60 OFFCURVE",
"744 60 CURVE SMOOTH",
"667 60 OFFCURVE",
"610 91 OFFCURVE",
"610 153 CURVE SMOOTH"
);
},
{
closed = 1;
nodes = (
"714 482 LINE",
"886 482 LINE",
"886 328 LINE",
"807 328 LINE SMOOTH",
"773 328 OFFCURVE",
"742 326 OFFCURVE",
"714 322 CURVE"
);
}
);
width = 1300;
}
);
unicode = 11FD3;
},
{
glyphname = DownscalingFactorKiizh;
lastChange = "2019-07-24 07:31:43 +0000";
layers = (
{
guideLines = (
{
angle = 90;
position = "{651, 635}";
}
);
layerId = master01;
paths = (
{
closed = 1;
nodes = (
"49 47 OFFCURVE",
"140 -12 OFFCURVE",
"261 -12 CURVE SMOOTH",
"345 -12 OFFCURVE",
"411 6 OFFCURVE",
"452 57 CURVE SMOOTH",
"480 91 OFFCURVE",
"496 136 OFFCURVE",
"496 226 CURVE SMOOTH",
"496 258 LINE",
"519 258 LINE SMOOTH",
"602 258 OFFCURVE",
"690 247 OFFCURVE",
"690 156 CURVE SMOOTH",
"690 92 OFFCURVE",
"657 62 OFFCURVE",
"594 62 CURVE SMOOTH",
"568 62 OFFCURVE",
"541 66 OFFCURVE",
"521 72 CURVE",
"502 5 LINE",
"533 -4 OFFCURVE",
"571 -8 OFFCURVE",
"602 -8 CURVE SMOOTH",
"713 -8 OFFCURVE",
"776 50 OFFCURVE",
"776 152 CURVE SMOOTH",
"776 208 OFFCURVE",
"755 252 OFFCURVE",
"720 279 CURVE SMOOTH",
"674 314 OFFCURVE",
"616 328 OFFCURVE",
"512 328 CURVE SMOOTH",
"496 328 LINE",
"496 482 LINE",
"683 482 LINE",
"683 554 LINE",
"484 554 LINE",
"465 588 OFFCURVE",
"452 629 OFFCURVE",
"452 671 CURVE SMOOTH",
"452 758 OFFCURVE",
"506 807 OFFCURVE",
"582 807 CURVE SMOOTH",
"588 807 LINE",
"557 786 OFFCURVE",
"539 755 OFFCURVE",
"539 713 CURVE SMOOTH",
"539 653 OFFCURVE",
"586 612 OFFCURVE",
"651 612 CURVE SMOOTH",
"719 612 OFFCURVE",
"759 655 OFFCURVE",
"759 716 CURVE SMOOTH",
"759 762 OFFCURVE",
"738 801 OFFCURVE",
"700 821 CURVE",
"710 824 OFFCURVE",
"721 825 OFFCURVE",
"735 825 CURVE SMOOTH",
"802 825 OFFCURVE",
"840 779 OFFCURVE",
"840 709 CURVE SMOOTH",
"840 659 OFFCURVE",
"828 628 OFFCURVE",
"808 593 CURVE",
"812 547 LINE",
"1031 547 LINE",
"1031 605 LINE",
"888 605 LINE",
"907 640 OFFCURVE",
"915 683 OFFCURVE",
"915 720 CURVE SMOOTH",
"915 815 OFFCURVE",
"854 881 OFFCURVE",
"746 881 CURVE SMOOTH",
"707 881 OFFCURVE",
"673 869 OFFCURVE",
"645 852 CURVE",
"625 860 OFFCURVE",
"600 864 OFFCURVE",
"575 864 CURVE SMOOTH",
"437 864 OFFCURVE",
"375 776 OFFCURVE",
"375 675 CURVE SMOOTH",
"375 632 OFFCURVE",
"385 590 OFFCURVE",
"402 554 CURVE",
"160 554 LINE",
"160 303 LINE",
"82 275 OFFCURVE",
"49 222 OFFCURVE",
"49 152 CURVE SMOOTH"
);
},
{
closed = 1;
nodes = (
"135 191 OFFCURVE",
"149 215 OFFCURVE",
"178 232 CURVE SMOOTH",
"211 251 OFFCURVE",
"257 258 OFFCURVE",
"325 258 CURVE SMOOTH",
"411 258 LINE",
"411 213 LINE SMOOTH",
"411 93 OFFCURVE",
"356 60 OFFCURVE",
"269 60 CURVE SMOOTH",
"192 60 OFFCURVE",
"135 91 OFFCURVE",
"135 153 CURVE SMOOTH"
);
},
{
closed = 1;
nodes = (
"239 482 LINE",
"411 482 LINE",
"411 328 LINE",
"332 328 LINE SMOOTH",
"298 328 OFFCURVE",
"267 326 OFFCURVE",
"239 322 CURVE"
);
},
{
closed = 1;
nodes = (
"602 754 OFFCURVE",
"619 781 OFFCURVE",
"647 797 CURVE",
"677 784 OFFCURVE",
"697 756 OFFCURVE",
"697 723 CURVE SMOOTH",
"697 690 OFFCURVE",
"680 668 OFFCURVE",
"651 668 CURVE SMOOTH",
"623 668 OFFCURVE",
"602 690 OFFCURVE",
"602 723 CURVE SMOOTH"
);
}
);
width = 1031;
}
);
unicode = 11FD4;
},
{
glyphname = Nel;
lastChange = "2019-07-24 07:31:44 +0000";
layers = (
{
layerId = master01;
paths = (
{
closed = 1;
nodes = (
"50 132 OFFCURVE",
"128 68 OFFCURVE",
"227 68 CURVE SMOOTH",
"331 68 OFFCURVE",
"395 130 OFFCURVE",
"395 233 CURVE SMOOTH",
"395 332 OFFCURVE",
"341 394 OFFCURVE",
"252 394 CURVE SMOOTH",
"207 394 OFFCURVE",
"170 379 OFFCURVE",
"139 353 CURVE",
"164 437 OFFCURVE",
"232 492 OFFCURVE",
"339 492 CURVE SMOOTH",
"461 492 OFFCURVE",
"545 414 OFFCURVE",
"545 257 CURVE SMOOTH",
"545 223 LINE",
"619 223 LINE",
"619 281 LINE SMOOTH",
"619 416 OFFCURVE",
"684 491 OFFCURVE",
"786 491 CURVE SMOOTH",
"880 491 OFFCURVE",
"936 428 OFFCURVE",
"936 323 CURVE SMOOTH",
"936 191 OFFCURVE",
"864 99 OFFCURVE",
"704 63 CURVE",
"708 0 LINE",
"1341 0 LINE",
"1341 74 LINE",
"883 74 LINE",
"974 107 OFFCURVE",
"1024 210 OFFCURVE",
"1024 326 CURVE SMOOTH",
"1024 466 OFFCURVE",
"942 566 OFFCURVE",
"792 566 CURVE SMOOTH",
"690 566 OFFCURVE",
"610 517 OFFCURVE",
"578 421 CURVE",
"541 510 OFFCURVE",
"461 566 OFFCURVE",
"337 566 CURVE SMOOTH",
"162 566 OFFCURVE",
"50 453 OFFCURVE",
"50 283 CURVE SMOOTH"
);
},
{
closed = 1;
nodes = (
"157 305 OFFCURVE",
"192 324 OFFCURVE",
"226 324 CURVE SMOOTH",
"282 324 OFFCURVE",
"313 290 OFFCURVE",
"313 230 CURVE SMOOTH",
"313 169 OFFCURVE",
"280 136 OFFCURVE",
"231 136 CURVE SMOOTH",
"174 136 OFFCURVE",
"130 173 OFFCURVE",
"129 274 CURVE"
);
}
);
width = 1358;
}
);
unicode = 11FD5;
},
{
glyphname = Cevitu;
lastChange = "2019-07-24 07:31:46 +0000";
layers = (
{
guideLines = (
{
angle = 90;
position = "{0, 179}";
}
);
layerId = master01;
paths = (
{
closed = 1;
nodes = (
"37 -285 OFFCURVE",
"176 -341 OFFCURVE",
"381 -341 CURVE SMOOTH",
"387 -341 LINE SMOOTH",
"605 -341 OFFCURVE",
"775 -283 OFFCURVE",
"851 -154 CURVE",
"853 -146 LINE",
"994 -146 LINE",
"994 -152 LINE SMOOTH",
"994 -248 OFFCURVE",
"1044 -301 OFFCURVE",
"1123 -301 CURVE SMOOTH",
"1189 -301 OFFCURVE",
"1235 -262 OFFCURVE",
"1235 -191 CURVE SMOOTH",
"1235 -119 OFFCURVE",
"1197 -84 OFFCURVE",
"1113 -84 CURVE SMOOTH",
"1071 -84 LINE",
"1094 -31 OFFCURVE",
"1146 -12 OFFCURVE",
"1203 -12 CURVE SMOOTH",
"1284 -12 OFFCURVE",
"1331 -61 OFFCURVE",
"1331 -136 CURVE SMOOTH",
"1331 -186 OFFCURVE",
"1318 -217 OFFCURVE",
"1298 -252 CURVE",
"1302 -298 LINE",
"1521 -298 LINE",
"1521 -240 LINE",
"1378 -240 LINE",
"1399 -206 OFFCURVE",
"1406 -161 OFFCURVE",
"1406 -125 CURVE SMOOTH",
"1406 -22 OFFCURVE",
"1332 50 OFFCURVE",
"1201 50 CURVE SMOOTH",
"1118 50 OFFCURVE",
"1032 7 OFFCURVE",
"1003 -84 CURVE",
"871 -84 LINE",
"880 -38 OFFCURVE",
"883 29 OFFCURVE",
"883 80 CURVE SMOOTH",
"883 482 LINE",
"1033 482 LINE",
"1033 554 LINE",
"549 554 LINE",
"549 502 LINE",
"500 540 OFFCURVE",
"443 566 OFFCURVE",
"358 566 CURVE SMOOTH",
"202 566 OFFCURVE",
"57 461 OFFCURVE",
"57 243 CURVE SMOOTH",
"57 63 OFFCURVE",
"142 -12 OFFCURVE",
"249 -12 CURVE SMOOTH",
"356 -12 OFFCURVE",
"422 54 OFFCURVE",
"422 165 CURVE SMOOTH",
"422 265 OFFCURVE",
"357 328 OFFCURVE",
"261 328 CURVE SMOOTH",
"217 328 OFFCURVE",
"175 313 OFFCURVE",
"140 290 CURVE",
"158 409 OFFCURVE",
"238 492 OFFCURVE",
"355 492 CURVE SMOOTH",
"436 492 OFFCURVE",
"491 462 OFFCURVE",
"537 407 CURVE",
"537 0 LINE",
"623 0 LINE",
"623 482 LINE",
"797 482 LINE",
"797 80 LINE SMOOTH",
"797 19 OFFCURVE",
"795 -45 OFFCURVE",
"785 -84 CURVE",
"143 -84 LINE SMOOTH",
"74 -84 OFFCURVE",
"37 -114 OFFCURVE",
"37 -175 CURVE SMOOTH"
);
},
{
closed = 1;
nodes = (
"120 -158 OFFCURVE",
"139 -156 OFFCURVE",
"155 -156 CURVE SMOOTH",
"753 -156 LINE",
"682 -238 OFFCURVE",
"559 -268 OFFCURVE",
"389 -268 CURVE SMOOTH",
"379 -268 LINE SMOOTH",
"210 -268 OFFCURVE",
"120 -230 OFFCURVE",
"120 -180 CURVE SMOOTH"
);
},
{
closed = 1;
nodes = (
"169 240 OFFCURVE",
"206 258 OFFCURVE",
"247 258 CURVE SMOOTH",
"302 258 OFFCURVE",
"340 221 OFFCURVE",
"340 155 CURVE SMOOTH",
"340 91 OFFCURVE",
"307 56 OFFCURVE",
"253 56 CURVE SMOOTH",
"191 56 OFFCURVE",
"143 97 OFFCURVE",
"137 212 CURVE"
);
},
{
closed = 1;
nodes = (
"1058 -143 LINE",
"1107 -143 LINE SMOOTH",
"1152 -143 OFFCURVE",
"1172 -160 OFFCURVE",
"1172 -194 CURVE SMOOTH",
"1172 -228 OFFCURVE",
"1149 -242 OFFCURVE",
"1121 -242 CURVE SMOOTH",
"1077 -242 OFFCURVE",
"1058 -212 OFFCURVE",
"1058 -154 CURVE SMOOTH"
);
}
);
width = 1481;
}
);
unicode = 11FD6;
},
{
glyphname = Aazhaakku;
lastChange = "2019-07-24 07:31:48 +0000";
layers = (
{
guideLines = (
{
angle = 270;
position = "{0, -145}";
}
);
layerId = master01;
paths = (
{
closed = 1;
nodes = (
"37 -285 OFFCURVE",
"176 -341 OFFCURVE",
"381 -341 CURVE SMOOTH",
"387 -341 LINE SMOOTH",
"604 -341 OFFCURVE",
"773 -284 OFFCURVE",
"850 -156 CURVE",
"1160 -156 LINE",
"1160 554 LINE",
"1074 554 LINE",
"1074 -84 LINE",
"871 -84 LINE",
"880 -38 OFFCURVE",
"883 29 OFFCURVE",
"883 80 CURVE SMOOTH",
"883 482 LINE",
"1033 482 LINE",
"1033 554 LINE",
"549 554 LINE",
"549 502 LINE",
"500 540 OFFCURVE",
"443 566 OFFCURVE",
"358 566 CURVE SMOOTH",
"202 566 OFFCURVE",
"57 461 OFFCURVE",
"57 243 CURVE SMOOTH",
"57 63 OFFCURVE",
"142 -12 OFFCURVE",
"249 -12 CURVE SMOOTH",
"356 -12 OFFCURVE",
"422 54 OFFCURVE",
"422 165 CURVE SMOOTH",
"422 265 OFFCURVE",
"357 328 OFFCURVE",
"261 328 CURVE SMOOTH",
"217 328 OFFCURVE",
"175 313 OFFCURVE",
"140 290 CURVE",
"158 409 OFFCURVE",
"238 492 OFFCURVE",
"355 492 CURVE SMOOTH",
"436 492 OFFCURVE",
"491 462 OFFCURVE",
"537 407 CURVE",
"537 0 LINE",
"623 0 LINE",
"623 482 LINE",
"797 482 LINE",
"797 70 LINE SMOOTH",
"797 9 OFFCURVE",
"795 -45 OFFCURVE",
"785 -84 CURVE",
"143 -84 LINE SMOOTH",
"74 -84 OFFCURVE",
"37 -114 OFFCURVE",
"37 -175 CURVE SMOOTH"
);
},
{
closed = 1;
nodes = (
"120 -158 OFFCURVE",
"139 -156 OFFCURVE",
"155 -156 CURVE SMOOTH",
"753 -156 LINE",
"682 -238 OFFCURVE",
"559 -268 OFFCURVE",
"389 -268 CURVE SMOOTH",
"379 -268 LINE SMOOTH",
"210 -268 OFFCURVE",
"120 -230 OFFCURVE",
"120 -180 CURVE SMOOTH"
);
},
{
closed = 1;
nodes = (
"169 240 OFFCURVE",
"206 258 OFFCURVE",
"247 258 CURVE SMOOTH",
"302 258 OFFCURVE",
"340 221 OFFCURVE",
"340 155 CURVE SMOOTH",
"340 91 OFFCURVE",
"307 56 OFFCURVE",
"253 56 CURVE SMOOTH",
"191 56 OFFCURVE",
"143 97 OFFCURVE",
"137 212 CURVE"
);
}
);
width = 1248;
}
);
unicode = 11FD7;
},
{
glyphname = Uzhakku;
lastChange = "2019-07-24 07:31:49 +0000";
layers = (
{
guideLines = (
{
angle = 270;
position = "{387, 100}";
}
);
layerId = master01;
paths = (
{
closed = 1;
nodes = (
"119 287 LINE",
"119 408 OFFCURVE",
"182 492 OFFCURVE",
"294 492 CURVE SMOOTH",
"400 492 OFFCURVE",
"466 423 OFFCURVE",
"484 298 CURVE",
"416 268 OFFCURVE",
"387 217 OFFCURVE",
"387 152 CURVE SMOOTH",
"387 47 OFFCURVE",
"478 -12 OFFCURVE",
"599 -12 CURVE SMOOTH",
"683 -12 OFFCURVE",
"748 6 OFFCURVE",
"790 57 CURVE SMOOTH",
"818 91 OFFCURVE",
"834 136 OFFCURVE",
"834 226 CURVE SMOOTH",
"834 257 LINE",
"933 253 OFFCURVE",
"1029 223 OFFCURVE",
"1029 105 CURVE SMOOTH",
"1029 55 OFFCURVE",
"1015 16 OFFCURVE",
"988 -13 CURVE SMOOTH",
"942 -63 OFFCURVE",
"870 -84 OFFCURVE",
"692 -84 CURVE SMOOTH",
"585 -84 LINE SMOOTH",
"518 -84 OFFCURVE",
"479 -94 OFFCURVE",
"444 -119 CURVE SMOOTH",
"410 -144 OFFCURVE",
"387 -184 OFFCURVE",
"387 -243 CURVE SMOOTH",
"387 -266 OFFCURVE",
"390 -297 OFFCURVE",
"394 -321 CURVE",
"476 -317 LINE",
"474 -301 OFFCURVE",
"473 -283 OFFCURVE",
"473 -263 CURVE SMOOTH",
"473 -219 OFFCURVE",
"485 -194 OFFCURVE",
"507 -179 CURVE SMOOTH",
"529 -164 OFFCURVE",
"556 -156 OFFCURVE",
"612 -156 CURVE SMOOTH",
"723 -156 LINE SMOOTH",
"867 -156 OFFCURVE",
"953 -141 OFFCURVE",
"1019 -94 CURVE SMOOTH",
"1081 -50 OFFCURVE",
"1115 9 OFFCURVE",
"1115 98 CURVE SMOOTH",
"1115 265 OFFCURVE",
"998 324 OFFCURVE",
"834 328 CURVE",
"834 482 LINE",
"1021 482 LINE",
"1021 554 LINE",
"510 554 LINE",
"510 426 LINE",
"480 506 OFFCURVE",
"405 566 OFFCURVE",
"289 566 CURVE SMOOTH",
"136 566 OFFCURVE",
"40 457 OFFCURVE",
"40 293 CURVE SMOOTH",
"40 287 LINE"
);
},
{
closed = 1;
nodes = (
"473 191 OFFCURVE",
"487 215 OFFCURVE",
"516 232 CURVE SMOOTH",
"549 251 OFFCURVE",
"595 258 OFFCURVE",
"663 258 CURVE SMOOTH",
"749 258 LINE",
"749 213 LINE SMOOTH",
"749 94 OFFCURVE",
"694 60 OFFCURVE",
"607 60 CURVE SMOOTH",
"530 60 OFFCURVE",
"473 91 OFFCURVE",
"473 153 CURVE SMOOTH"
);
},
{
closed = 1;
nodes = (
"577 482 LINE",
"749 482 LINE",
"749 328 LINE",
"670 328 LINE SMOOTH",
"636 328 OFFCURVE",
"605 326 OFFCURVE",
"577 322 CURVE"
);
}
);
width = 1163;
}
);
unicode = 11FD8;
},
{
glyphname = Muuvuzhakku;
lastChange = "2019-07-24 07:31:50 +0000";
layers = (
{
layerId = master01;
paths = (
{
closed = 1;
nodes = (
"174 0 LINE",
"174 482 LINE",
"344 482 LINE",
"344 144 LINE",
"430 144 LINE",
"430 246 LINE",
"459 269 OFFCURVE",
"500 289 OFFCURVE",
"543 289 CURVE SMOOTH",
"595 289 OFFCURVE",
"632 263 OFFCURVE",
"632 192 CURVE SMOOTH",
"632 146 OFFCURVE",
"617 105 OFFCURVE",
"595 72 CURVE",
"344 72 LINE",
"344 0 LINE",
"964 0 LINE",
"987 -8 OFFCURVE",
"1013 -12 OFFCURVE",
"1041 -12 CURVE SMOOTH",
"1121 -12 OFFCURVE",
"1183 7 OFFCURVE",
"1223 57 CURVE SMOOTH",
"1250 91 OFFCURVE",
"1266 136 OFFCURVE",
"1266 226 CURVE SMOOTH",
"1266 257 LINE",
"1365 253 OFFCURVE",
"1461 223 OFFCURVE",
"1461 105 CURVE SMOOTH",
"1461 55 OFFCURVE",
"1447 16 OFFCURVE",
"1420 -13 CURVE SMOOTH",
"1374 -63 OFFCURVE",
"1302 -84 OFFCURVE",
"1124 -84 CURVE SMOOTH",
"1015 -84 LINE SMOOTH",
"948 -84 OFFCURVE",
"909 -94 OFFCURVE",
"874 -119 CURVE SMOOTH",
"840 -144 OFFCURVE",
"817 -184 OFFCURVE",
"817 -243 CURVE SMOOTH",
"817 -266 OFFCURVE",
"820 -297 OFFCURVE",
"824 -321 CURVE",
"906 -317 LINE",
"904 -301 OFFCURVE",
"903 -283 OFFCURVE",
"903 -263 CURVE SMOOTH",
"903 -219 OFFCURVE",
"915 -194 OFFCURVE",
"937 -179 CURVE SMOOTH",
"959 -164 OFFCURVE",
"986 -156 OFFCURVE",
"1042 -156 CURVE SMOOTH",
"1155 -156 LINE SMOOTH",
"1299 -156 OFFCURVE",
"1385 -141 OFFCURVE",
"1451 -94 CURVE SMOOTH",
"1513 -50 OFFCURVE",
"1547 9 OFFCURVE",
"1547 98 CURVE SMOOTH",
"1547 265 OFFCURVE",
"1430 324 OFFCURVE",
"1266 328 CURVE",
"1266 482 LINE",
"1453 482 LINE",
"1453 554 LINE",
"930 554 LINE",
"930 306 LINE",
"852 279 OFFCURVE",
"819 231 OFFCURVE",
"819 165 CURVE SMOOTH",
"819 131 OFFCURVE",
"831 96 OFFCURVE",
"851 72 CURVE",
"682 72 LINE",
"703 108 OFFCURVE",
"718 153 OFFCURVE",
"718 201 CURVE SMOOTH",
"718 302 OFFCURVE",
"658 362 OFFCURVE",
"558 362 CURVE SMOOTH",
"499 362 OFFCURVE",
"456 340 OFFCURVE",
"430 324 CURVE",
"430 482 LINE",
"604 482 LINE",
"604 554 LINE",
"88 554 LINE",
"88 0 LINE"
);
},
{
closed = 1;
nodes = (
"905 191 OFFCURVE",
"919 215 OFFCURVE",
"948 232 CURVE SMOOTH",
"981 251 OFFCURVE",
"1027 258 OFFCURVE",
"1095 258 CURVE SMOOTH",
"1181 258 LINE",
"1181 213 LINE SMOOTH",
"1181 94 OFFCURVE",
"1126 60 OFFCURVE",
"1039 60 CURVE SMOOTH",
"962 60 OFFCURVE",
"905 91 OFFCURVE",
"905 153 CURVE SMOOTH"
);
},
{
closed = 1;
nodes = (
"1009 482 LINE",
"1181 482 LINE",
"1181 328 LINE",
"1102 328 LINE SMOOTH",
"1068 328 OFFCURVE",
"1037 326 OFFCURVE",
"1009 323 CURVE"
);
}
);
width = 1595;
}
);
unicode = 11FD9;
},
{
glyphname = Kuruni;
lastChange = "2019-07-24 07:31:51 +0000";
layers = (
{
layerId = master01;
paths = (
{
closed = 1;
nodes = (
"590 0 LINE",
"590 -283 LINE",
"676 -283 LINE",
"676 72 LINE",
"174 72 LINE",
"174 554 LINE",
"88 554 LINE",
"88 0 LINE"
);
}
);
width = 693;
}
);
unicode = 11FDA;
},
{
glyphname = Pathakku;
lastChange = "2019-07-24 07:31:52 +0000";
layers = (
{
layerId = master01;
paths = (
{
closed = 1;
nodes = (
"30 508 OFFCURVE",
"96 461 OFFCURVE",
"179 461 CURVE SMOOTH",
"268 461 OFFCURVE",
"325 513 OFFCURVE",
"325 595 CURVE SMOOTH",
"325 623 OFFCURVE",
"320 659 OFFCURVE",
"305 694 CURVE",
"385 684 OFFCURVE",
"435 634 OFFCURVE",
"435 554 CURVE SMOOTH",
"435 466 OFFCURVE",
"388 420 OFFCURVE",
"311 374 CURVE SMOOTH",
"269 349 LINE SMOOTH",
"188 301 OFFCURVE",
"139 255 OFFCURVE",
"139 168 CURVE SMOOTH",
"139 62 OFFCURVE",
"213 0 OFFCURVE",
"333 0 CURVE SMOOTH",
"665 0 LINE",
"691 -8 OFFCURVE",
"721 -12 OFFCURVE",
"753 -12 CURVE SMOOTH",
"837 -12 OFFCURVE",
"902 6 OFFCURVE",
"944 57 CURVE SMOOTH",
"972 91 OFFCURVE",
"988 137 OFFCURVE",
"988 226 CURVE SMOOTH",
"988 257 LINE",
"1106 250 OFFCURVE",
"1179 186 OFFCURVE",
"1179 55 CURVE SMOOTH",
"1179 5 OFFCURVE",
"1168 -44 OFFCURVE",
"1149 -84 CURVE",
"649 -84 LINE SMOOTH",
"579 -84 OFFCURVE",
"541 -115 OFFCURVE",
"541 -173 CURVE SMOOTH",
"541 -263 OFFCURVE",
"659 -320 OFFCURVE",
"830 -320 CURVE SMOOTH",
"834 -320 LINE SMOOTH",
"1007 -320 OFFCURVE",
"1134 -262 OFFCURVE",
"1208 -156 CURVE",
"1495 -156 LINE",
"1495 554 LINE",
"1409 554 LINE",
"1409 -84 LINE",
"1239 -84 LINE",
"1256 -44 OFFCURVE",
"1268 7 OFFCURVE",
"1268 58 CURVE SMOOTH",
"1268 229 OFFCURVE",
"1161 324 OFFCURVE",
"988 328 CURVE",
"988 482 LINE",
"1175 482 LINE",
"1175 554 LINE",
"652 554 LINE",
"652 303 LINE",
"574 274 OFFCURVE",
"541 221 OFFCURVE",
"541 153 CURVE SMOOTH",
"541 122 OFFCURVE",
"549 95 OFFCURVE",
"563 72 CURVE",
"344 72 LINE SMOOTH",
"264 72 OFFCURVE",
"226 112 OFFCURVE",
"226 167 CURVE SMOOTH",
"226 225 OFFCURVE",
"261 252 OFFCURVE",
"322 291 CURVE SMOOTH",
"361 316 LINE SMOOTH",
"458 378 OFFCURVE",
"518 434 OFFCURVE",
"518 554 CURVE SMOOTH",
"518 628 OFFCURVE",
"489 693 OFFCURVE",
"420 729 CURVE SMOOTH",
"379 751 OFFCURVE",
"326 763 OFFCURVE",
"257 763 CURVE SMOOTH",
"107 763 OFFCURVE",
"30 696 OFFCURVE",
"30 608 CURVE SMOOTH"
);
},
{
closed = 1;
nodes = (
"102 664 OFFCURVE",
"157 695 OFFCURVE",
"235 697 CURVE",
"249 668 OFFCURVE",
"255 638 OFFCURVE",
"255 609 CURVE SMOOTH",
"255 550 OFFCURVE",
"223 527 OFFCURVE",
"179 527 CURVE SMOOTH",
"130 527 OFFCURVE",
"102 558 OFFCURVE",
"102 603 CURVE SMOOTH"
);
},
{
closed = 1;
nodes = (
"625 -162 OFFCURVE",
"635 -156 OFFCURVE",
"650 -156 CURVE SMOOTH",
"1107 -156 LINE",
"1048 -214 OFFCURVE",
"962 -247 OFFCURVE",
"834 -247 CURVE SMOOTH",
"830 -247 LINE SMOOTH",
"692 -247 OFFCURVE",
"625 -207 OFFCURVE",
"625 -177 CURVE SMOOTH"
);
},
{
closed = 1;
nodes = (
"627 191 OFFCURVE",
"641 215 OFFCURVE",
"670 232 CURVE SMOOTH",
"703 251 OFFCURVE",
"749 258 OFFCURVE",
"817 258 CURVE SMOOTH",
"903 258 LINE",
"903 213 LINE SMOOTH",
"903 94 OFFCURVE",
"848 60 OFFCURVE",
"761 60 CURVE SMOOTH",
"684 60 OFFCURVE",
"627 91 OFFCURVE",
"627 153 CURVE SMOOTH"
);
},
{
closed = 1;
nodes = (
"731 482 LINE",
"903 482 LINE",
"903 328 LINE",
"824 328 LINE SMOOTH",
"790 328 OFFCURVE",
"759 326 OFFCURVE",
"731 322 CURVE"
);
}
);
width = 1583;
}
);
unicode = 11FDB;
},
{
glyphname = Mukkuruni;
lastChange = "2019-07-24 07:31:54 +0000";
layers = (
{
layerId = master01;
paths = (
{
closed = 1;
nodes = (
"174 0 LINE",
"174 482 LINE",
"348 482 LINE",
"348 0 LINE",
"434 0 LINE",
"434 240 LINE",
"457 267 OFFCURVE",
"496 289 OFFCURVE",
"538 289 CURVE SMOOTH",
"607 289 OFFCURVE",
"642 250 OFFCURVE",
"642 171 CURVE SMOOTH",
"642 0 LINE",
"725 0 LINE",
"725 156 LINE SMOOTH",
"725 247 OFFCURVE",
"768 289 OFFCURVE",
"817 289 CURVE SMOOTH",
"866 289 OFFCURVE",
"882 260 OFFCURVE",
"888 207 CURVE SMOOTH",
"897 131 LINE SMOOTH",
"907 48 OFFCURVE",
"953 -12 OFFCURVE",
"1060 -12 CURVE SMOOTH",
"1209 -12 OFFCURVE",
"1275 108 OFFCURVE",
"1275 344 CURVE SMOOTH",
"1275 728 OFFCURVE",
"1031 855 OFFCURVE",
"680 855 CURVE SMOOTH",
"521 855 OFFCURVE",
"379 831 OFFCURVE",
"253 792 CURVE",
"270 724 LINE",
"387 758 OFFCURVE",
"530 780 OFFCURVE",
"679 780 CURVE SMOOTH",
"982 780 OFFCURVE",
"1186 676 OFFCURVE",
"1186 342 CURVE SMOOTH",
"1186 141 OFFCURVE",
"1137 61 OFFCURVE",
"1060 61 CURVE SMOOTH",
"1010 61 OFFCURVE",
"983 89 OFFCURVE",
"977 149 CURVE SMOOTH",
"969 226 LINE SMOOTH",
"960 309 OFFCURVE",
"922 362 OFFCURVE",
"831 362 CURVE SMOOTH",
"769 362 OFFCURVE",
"714 331 OFFCURVE",
"689 275 CURVE",
"670 331 OFFCURVE",
"624 362 OFFCURVE",
"556 362 CURVE SMOOTH",
"506 362 OFFCURVE",
"463 342 OFFCURVE",
"434 316 CURVE",
"434 482 LINE",
"705 482 LINE",
"705 554 LINE",
"88 554 LINE",
"88 0 LINE"
);
}
);
width = 1338;
}
);
unicode = 11FDC;
},
{
glyphname = Kaacu;
lastChange = "2019-07-24 07:31:55 +0000";
layers = (
{
layerId = master01;
paths = (
{
closed = 1;
nodes = (
"49 47 OFFCURVE",
"140 -12 OFFCURVE",
"261 -12 CURVE SMOOTH",
"345 -12 OFFCURVE",
"411 6 OFFCURVE",
"452 57 CURVE SMOOTH",
"480 91 OFFCURVE",
"496 137 OFFCURVE",
"496 226 CURVE SMOOTH",
"496 258 LINE",
"546 258 LINE SMOOTH",
"609 258 OFFCURVE",
"642 232 OFFCURVE",
"642 162 CURVE SMOOTH",
"642 0 LINE",
"725 0 LINE",
"725 148 LINE SMOOTH",
"725 231 OFFCURVE",
"769 269 OFFCURVE",
"826 269 CURVE SMOOTH",
"880 269 OFFCURVE",
"912 230 OFFCURVE",
"912 170 CURVE SMOOTH",
"912 128 OFFCURVE",
"899 92 OFFCURVE",
"882 62 CURVE",
"897 0 LINE",
"1154 0 LINE",
"1154 72 LINE",
"970 72 LINE",
"988 103 OFFCURVE",
"998 141 OFFCURVE",
"998 182 CURVE SMOOTH",
"998 280 OFFCURVE",
"937 342 OFFCURVE",
"841 342 CURVE SMOOTH",
"773 342 OFFCURVE",
"715 312 OFFCURVE",
"688 256 CURVE",
"667 304 OFFCURVE",
"626 328 OFFCURVE",
"551 328 CURVE SMOOTH",
"496 328 LINE",
"496 482 LINE",
"683 482 LINE",
"683 554 LINE",
"160 554 LINE",
"160 303 LINE",
"82 274 OFFCURVE",
"49 221 OFFCURVE",
"49 152 CURVE SMOOTH"
);
},
{
closed = 1;
nodes = (
"135 191 OFFCURVE",
"149 215 OFFCURVE",
"178 232 CURVE SMOOTH",
"211 251 OFFCURVE",
"257 258 OFFCURVE",
"325 258 CURVE SMOOTH",
"411 258 LINE",
"411 213 LINE SMOOTH",
"411 94 OFFCURVE",
"356 60 OFFCURVE",
"269 60 CURVE SMOOTH",
"192 60 OFFCURVE",
"135 91 OFFCURVE",
"135 153 CURVE SMOOTH"
);
},
{
closed = 1;
nodes = (
"239 482 LINE",
"411 482 LINE",
"411 328 LINE",
"332 328 LINE SMOOTH",
"298 328 OFFCURVE",
"267 326 OFFCURVE",
"239 322 CURVE"
);
}
);
width = 1171;
}
);
unicode = 11FDD;
},
{
glyphname = Panam;
lastChange = "2019-07-24 07:31:56 +0000";
layers = (
{
guideLines = (
{
angle = 180;
position = "{852, -87}";
}
);
layerId = master01;
paths = (
{
closed = 1;
nodes = (
"50 109 OFFCURVE",
"179 -12 OFFCURVE",
"393 -12 CURVE SMOOTH",
"608 -12 OFFCURVE",
"718 113 OFFCURVE",
"718 312 CURVE SMOOTH",
"718 379 OFFCURVE",
"695 439 OFFCURVE",
"670 478 CURVE",
"1111 478 LINE",
"1111 554 LINE",
"590 554 LINE",
"584 485 LINE",
"606 453 OFFCURVE",
"632 395 OFFCURVE",
"632 320 CURVE SMOOTH",
"632 154 OFFCURVE",
"552 64 OFFCURVE",
"393 64 CURVE SMOOTH",
"239 64 OFFCURVE",
"136 145 OFFCURVE",
"136 305 CURVE SMOOTH",
"136 406 OFFCURVE",
"169 477 OFFCURVE",
"208 530 CURVE",
"143 575 LINE",
"100 528 OFFCURVE",
"50 434 OFFCURVE",
"50 303 CURVE SMOOTH"
);
}
);
width = 1131;
}
);
unicode = 11FDE;
},
{
glyphname = Pon;
lastChange = "2019-07-24 07:31:57 +0000";
layers = (
{
layerId = master01;
paths = (
{
closed = 1;
nodes = (
"432 478 LINE",
"512 307 LINE SMOOTH",
"595 130 OFFCURVE",
"707 -11 OFFCURVE",
"935 -11 CURVE SMOOTH",
"1138 -11 OFFCURVE",
"1262 111 OFFCURVE",
"1262 316 CURVE SMOOTH",
"1262 494 OFFCURVE",
"1161 608 OFFCURVE",
"995 608 CURVE SMOOTH",
"851 608 OFFCURVE",
"757 523 OFFCURVE",
"757 400 CURVE SMOOTH",
"757 370 OFFCURVE",
"762 341 OFFCURVE",
"770 317 CURVE",
"848 337 LINE",
"844 353 OFFCURVE",
"841 370 OFFCURVE",
"841 387 CURVE SMOOTH",
"841 477 OFFCURVE",
"904 531 OFFCURVE",
"991 531 CURVE SMOOTH",
"1101 531 OFFCURVE",
"1171 452 OFFCURVE",
"1171 316 CURVE SMOOTH",
"1171 146 OFFCURVE",
"1074 65 OFFCURVE",
"931 65 CURVE SMOOTH",
"768 65 OFFCURVE",
"667 171 OFFCURVE",
"588 345 CURVE SMOOTH",
"522 490 LINE SMOOTH",
"502 535 OFFCURVE",
"489 554 OFFCURVE",
"442 554 CURVE SMOOTH",
"20 554 LINE",
"20 478 LINE"
);
}
);
width = 1312;
}
);
unicode = 11FDF;
},
{
glyphname = Varaakan;
lastChange = "2019-07-24 07:31:58 +0000";
layers = (
{
guideLines = (
{
angle = 90;
position = "{732, 19}";
},
{
angle = 90;
position = "{703, 21}";
}
);
layerId = master01;
paths = (
{
closed = 1;
nodes = (
"30 508 OFFCURVE",
"96 461 OFFCURVE",
"179 461 CURVE SMOOTH",
"268 461 OFFCURVE",
"325 513 OFFCURVE",
"325 595 CURVE SMOOTH",
"325 623 OFFCURVE",
"320 659 OFFCURVE",
"305 694 CURVE",
"382 685 OFFCURVE",
"430 639 OFFCURVE",
"430 569 CURVE SMOOTH",
"430 499 OFFCURVE",
"399 465 OFFCURVE",
"352 421 CURVE SMOOTH",
"315 387 LINE SMOOTH",
"239 320 OFFCURVE",
"178 265 OFFCURVE",
"178 162 CURVE SMOOTH",
"178 55 OFFCURVE",
"249 -12 OFFCURVE",
"358 -12 CURVE SMOOTH",
"456 -12 OFFCURVE",
"505 42 OFFCURVE",
"538 106 CURVE SMOOTH",
"567 162 LINE SMOOTH",
"610 246 OFFCURVE",
"660 274 OFFCURVE",
"714 274 CURVE SMOOTH",
"725 274 OFFCURVE",
"734 273 OFFCURVE",
"742 273 CURVE",
"694 241 OFFCURVE",
"665 186 OFFCURVE",
"665 129 CURVE SMOOTH",
"665 43 OFFCURVE",
"722 -12 OFFCURVE",
"803 -12 CURVE SMOOTH",
"887 -12 OFFCURVE",
"937 43 OFFCURVE",
"937 129 CURVE SMOOTH",
"937 183 OFFCURVE",
"914 231 OFFCURVE",
"871 266 CURVE",
"878 267 OFFCURVE",
"886 267 OFFCURVE",
"895 267 CURVE SMOOTH",
"982 267 OFFCURVE",
"1026 222 OFFCURVE",
"1026 155 CURVE SMOOTH",
"1026 109 OFFCURVE",
"1013 79 OFFCURVE",
"993 46 CURVE",
"997 0 LINE",
"1256 0 LINE",
"1256 58 LINE",
"1073 58 LINE",
"1093 91 OFFCURVE",
"1101 132 OFFCURVE",
"1101 166 CURVE SMOOTH",
"1101 261 OFFCURVE",
"1034 326 OFFCURVE",
"905 326 CURVE SMOOTH",
"869 326 OFFCURVE",
"838 320 OFFCURVE",
"810 308 CURVE",
"781 324 OFFCURVE",
"748 334 OFFCURVE",
"704 334 CURVE SMOOTH",
"629 334 OFFCURVE",
"562 302 OFFCURVE",
"515 218 CURVE SMOOTH",
"488 170 LINE SMOOTH",
"450 103 OFFCURVE",
"422 61 OFFCURVE",
"359 61 CURVE SMOOTH",
"304 61 OFFCURVE",
"265 101 OFFCURVE",
"265 160 CURVE SMOOTH",
"265 236 OFFCURVE",
"315 276 OFFCURVE",
"367 327 CURVE SMOOTH",
"398 357 LINE SMOOTH",
"469 425 OFFCURVE",
"514 474 OFFCURVE",
"514 568 CURVE SMOOTH",
"514 698 OFFCURVE",
"410 763 OFFCURVE",
"255 763 CURVE SMOOTH",
"106 763 OFFCURVE",
"30 696 OFFCURVE",
"30 608 CURVE SMOOTH"
);
},
{
closed = 1;
nodes = (
"102 664 OFFCURVE",
"157 695 OFFCURVE",
"235 697 CURVE",
"249 668 OFFCURVE",
"255 638 OFFCURVE",
"255 609 CURVE SMOOTH",
"255 550 OFFCURVE",
"223 527 OFFCURVE",
"179 527 CURVE SMOOTH",
"130 527 OFFCURVE",
"102 558 OFFCURVE",
"102 603 CURVE SMOOTH"
);
},
{
closed = 1;
nodes = (
"739 182 OFFCURVE",
"761 223 OFFCURVE",
"805 249 CURVE",
"845 223 OFFCURVE",
"864 181 OFFCURVE",
"864 134 CURVE SMOOTH",
"864 80 OFFCURVE",
"837 53 OFFCURVE",
"803 53 CURVE SMOOTH",
"768 53 OFFCURVE",
"739 80 OFFCURVE",
"739 133 CURVE SMOOTH"
);
}
);
width = 1273;
}
);
unicode = 11FE0;
},
{
glyphname = Paaram;
lastChange = "2019-07-24 07:32:00 +0000";
layers = (
{
layerId = master01;
paths = (
{
closed = 1;
nodes = (
"630 0 LINE",
"630 327 LINE SMOOTH",
"630 386 OFFCURVE",
"633 434 OFFCURVE",
"655 463 CURVE SMOOTH",
"669 482 OFFCURVE",
"689 494 OFFCURVE",
"720 494 CURVE SMOOTH",
"751 494 OFFCURVE",
"772 481 OFFCURVE",
"785 461 CURVE SMOOTH",
"805 431 OFFCURVE",
"810 386 OFFCURVE",
"810 321 CURVE SMOOTH",
"810 0 LINE",
"896 0 LINE",
"896 319 LINE SMOOTH",
"896 391 OFFCURVE",
"905 427 OFFCURVE",
"932 458 CURVE SMOOTH",
"954 483 OFFCURVE",
"986 494 OFFCURVE",
"1021 494 CURVE SMOOTH",
"1110 494 OFFCURVE",
"1174 428 OFFCURVE",
"1174 247 CURVE SMOOTH",
"1174 108 OFFCURVE",
"1141 -7 OFFCURVE",
"1090 -84 CURVE",
"621 -84 LINE SMOOTH",
"563 -84 OFFCURVE",
"543 -90 OFFCURVE",
"525 -103 CURVE SMOOTH",
"506 -117 OFFCURVE",
"494 -138 OFFCURVE",
"494 -167 CURVE SMOOTH",
"494 -277 OFFCURVE",
"619 -321 OFFCURVE",
"743 -321 CURVE SMOOTH",
"763 -321 LINE SMOOTH",
"934 -321 OFFCURVE",
"1059 -271 OFFCURVE",
"1152 -156 CURVE",
"1505 -156 LINE",
"1505 554 LINE",
"1419 554 LINE",
"1419 -84 LINE",
"1191 -84 LINE",
"1234 -2 OFFCURVE",
"1263 110 OFFCURVE",
"1263 244 CURVE SMOOTH",
"1263 449 OFFCURVE",
"1180 566 OFFCURVE",
"1028 566 CURVE SMOOTH",
"941 566 OFFCURVE",
"884 527 OFFCURVE",
"857 472 CURVE",
"828 533 OFFCURVE",
"781 566 OFFCURVE",
"713 566 CURVE SMOOTH",
"663 566 OFFCURVE",
"625 552 OFFCURVE",
"597 524 CURVE SMOOTH",
"556 483 OFFCURVE",
"544 438 OFFCURVE",
"544 341 CURVE SMOOTH",
"544 72 LINE",
"174 72 LINE",
"174 554 LINE",
"88 554 LINE",
"88 0 LINE"
);
},
{
closed = 1;
nodes = (
"577 -158 OFFCURVE",
"596 -156 OFFCURVE",
"612 -156 CURVE SMOOTH",
"1044 -156 LINE",
"970 -222 OFFCURVE",
"880 -248 OFFCURVE",
"765 -248 CURVE SMOOTH",
"754 -248 LINE SMOOTH",
"636 -248 OFFCURVE",
"577 -219 OFFCURVE",
"577 -180 CURVE SMOOTH"
);
}
);
width = 1593;
}
);
unicode = 11FE1;
},
{
glyphname = Kuzhi;
lastChange = "2019-07-24 07:32:01 +0000";
layers = (
{
layerId = master01;
paths = (
{
closed = 1;
nodes = (
"48 -78 OFFCURVE",
"267 -275 OFFCURVE",
"587 -275 CURVE SMOOTH",
"596 -275 LINE SMOOTH",
"847 -275 OFFCURVE",
"1027 -151 OFFCURVE",
"1027 74 CURVE SMOOTH",
"1027 200 OFFCURVE",
"960 320 OFFCURVE",
"784 328 CURVE",
"784 482 LINE",
"971 482 LINE",
"971 554 LINE",
"448 554 LINE",
"448 303 LINE",
"370 274 OFFCURVE",
"337 221 OFFCURVE",
"337 152 CURVE SMOOTH",
"337 47 OFFCURVE",
"428 -12 OFFCURVE",
"550 -12 CURVE SMOOTH",
"633 -12 OFFCURVE",
"699 6 OFFCURVE",
"740 57 CURVE SMOOTH",
"768 91 OFFCURVE",
"784 137 OFFCURVE",
"784 226 CURVE SMOOTH",
"784 257 LINE",
"875 247 OFFCURVE",
"939 189 OFFCURVE",
"939 75 CURVE SMOOTH",
"939 -95 OFFCURVE",
"814 -198 OFFCURVE",
"592 -198 CURVE SMOOTH",
"327 -198 OFFCURVE",
"134 -41 OFFCURVE",
"134 243 CURVE SMOOTH",
"134 254 LINE SMOOTH",
"134 582 OFFCURVE",
"371 777 OFFCURVE",
"745 777 CURVE SMOOTH",
"1058 777 OFFCURVE",
"1274 608 OFFCURVE",
"1321 359 CURVE",
"1190 350 OFFCURVE",
"1094 271 OFFCURVE",
"1094 160 CURVE SMOOTH",
"1094 75 OFFCURVE",
"1152 23 OFFCURVE",
"1235 23 CURVE SMOOTH",
"1360 23 OFFCURVE",
"1411 117 OFFCURVE",
"1411 266 CURVE SMOOTH",
"1411 276 OFFCURVE",
"1411 284 OFFCURVE",
"1410 292 CURVE",
"1476 277 OFFCURVE",
"1510 229 OFFCURVE",
"1510 162 CURVE SMOOTH",
"1510 112 OFFCURVE",
"1498 81 OFFCURVE",
"1478 46 CURVE",
"1482 0 LINE",
"1741 0 LINE",
"1741 58 LINE",
"1558 58 LINE",
"1577 93 OFFCURVE",
"1585 136 OFFCURVE",
"1585 173 CURVE SMOOTH",
"1585 274 OFFCURVE",
"1524 347 OFFCURVE",
"1405 359 CURVE",
"1366 648 OFFCURVE",
"1133 853 OFFCURVE",
"750 855 CURVE SMOOTH",
"740 855 LINE SMOOTH",
"315 855 OFFCURVE",
"48 638 OFFCURVE",
"48 256 CURVE SMOOTH",
"48 241 LINE SMOOTH"
);
},
{
closed = 1;
nodes = (
"423 191 OFFCURVE",
"437 215 OFFCURVE",
"466 232 CURVE SMOOTH",
"499 251 OFFCURVE",
"545 258 OFFCURVE",
"613 258 CURVE SMOOTH",
"699 258 LINE",
"699 213 LINE SMOOTH",
"699 94 OFFCURVE",
"644 60 OFFCURVE",
"557 60 CURVE SMOOTH",
"480 60 OFFCURVE",
"423 91 OFFCURVE",
"423 153 CURVE SMOOTH"
);
},
{
closed = 1;
nodes = (
"527 482 LINE",
"699 482 LINE",
"699 328 LINE",
"620 328 LINE SMOOTH",
"586 328 OFFCURVE",
"555 326 OFFCURVE",
"527 322 CURVE"
);
},
{
closed = 1;
nodes = (
"1172 238 OFFCURVE",
"1241 290 OFFCURVE",
"1331 294 CURVE",
"1331 274 LINE SMOOTH",
"1331 162 OFFCURVE",
"1301 93 OFFCURVE",
"1237 93 CURVE SMOOTH",
"1199 93 OFFCURVE",
"1172 118 OFFCURVE",
"1172 162 CURVE SMOOTH"
);
}
);
width = 1758;
}
);
unicode = 11FE2;
},
{
glyphname = Veli;
lastChange = "2019-07-24 07:32:02 +0000";
layers = (
{
layerId = master01;
paths = (
{
closed = 1;
nodes = (
"57 63 OFFCURVE",
"142 -12 OFFCURVE",
"249 -12 CURVE SMOOTH",
"356 -12 OFFCURVE",
"422 54 OFFCURVE",
"422 165 CURVE SMOOTH",
"422 265 OFFCURVE",
"357 328 OFFCURVE",
"261 328 CURVE SMOOTH",
"217 328 OFFCURVE",
"175 314 OFFCURVE",
"140 290 CURVE",
"159 410 OFFCURVE",
"235 492 OFFCURVE",
"355 492 CURVE SMOOTH",
"409 492 OFFCURVE",
"445 479 OFFCURVE",
"472 455 CURVE SMOOTH",
"523 407 OFFCURVE",
"529 322 OFFCURVE",
"530 250 CURVE SMOOTH",
"531 149 OFFCURVE",
"554 78 OFFCURVE",
"597 38 CURVE SMOOTH",
"631 5 OFFCURVE",
"679 -12 OFFCURVE",
"737 -12 CURVE SMOOTH",
"868 -12 OFFCURVE",
"940 66 OFFCURVE",
"940 216 CURVE SMOOTH",
"940 299 OFFCURVE",
"912 363 OFFCURVE",
"887 426 CURVE SMOOTH",
"865 479 LINE SMOOTH",
"849 518 OFFCURVE",
"832 561 OFFCURVE",
"832 621 CURVE SMOOTH",
"832 730 OFFCURVE",
"910 799 OFFCURVE",
"1028 799 CURVE SMOOTH",
"1158 799 OFFCURVE",
"1240 712 OFFCURVE",
"1260 570 CURVE",
"1125 563 OFFCURVE",
"1020 487 OFFCURVE",
"1020 378 CURVE SMOOTH",
"1020 296 OFFCURVE",
"1077 245 OFFCURVE",
"1159 245 CURVE SMOOTH",
"1287 245 OFFCURVE",
"1343 342 OFFCURVE",
"1343 492 CURVE SMOOTH",
"1343 504 LINE",
"1408 491 OFFCURVE",
"1441 442 OFFCURVE",
"1441 373 CURVE SMOOTH",
"1441 323 OFFCURVE",
"1429 292 OFFCURVE",
"1409 257 CURVE",
"1413 211 LINE",
"1672 211 LINE",
"1672 269 LINE",
"1489 269 LINE",
"1508 304 OFFCURVE",
"1516 347 OFFCURVE",
"1516 384 CURVE SMOOTH",
"1516 485 OFFCURVE",
"1456 559 OFFCURVE",
"1341 571 CURVE",
"1320 756 OFFCURVE",
"1216 877 OFFCURVE",
"1025 877 CURVE SMOOTH",
"858 877 OFFCURVE",
"741 780 OFFCURVE",
"741 620 CURVE SMOOTH",
"741 547 OFFCURVE",
"767 487 OFFCURVE",
"789 435 CURVE SMOOTH",
"810 386 LINE SMOOTH",
"830 336 OFFCURVE",
"853 283 OFFCURVE",
"853 209 CURVE SMOOTH",
"853 99 OFFCURVE",
"803 62 OFFCURVE",
"744 62 CURVE SMOOTH",
"705 62 OFFCURVE",
"678 73 OFFCURVE",
"658 95 CURVE SMOOTH",
"625 130 OFFCURVE",
"617 182 OFFCURVE",
"617 252 CURVE SMOOTH",
"617 373 OFFCURVE",
"601 447 OFFCURVE",
"545 502 CURVE SMOOTH",
"494 553 OFFCURVE",
"423 566 OFFCURVE",
"359 566 CURVE SMOOTH",
"196 566 OFFCURVE",
"57 458 OFFCURVE",
"57 242 CURVE SMOOTH"
);
},
{
closed = 1;
nodes = (
"169 240 OFFCURVE",
"206 258 OFFCURVE",
"247 258 CURVE SMOOTH",
"302 258 OFFCURVE",
"340 221 OFFCURVE",
"340 155 CURVE SMOOTH",
"340 91 OFFCURVE",
"307 56 OFFCURVE",
"253 56 CURVE SMOOTH",
"191 56 OFFCURVE",
"142 98 OFFCURVE",
"136 212 CURVE"
);
},
{
closed = 1;
nodes = (
"1098 452 OFFCURVE",
"1170 501 OFFCURVE",
"1264 505 CURVE",
"1264 498 LINE SMOOTH",
"1264 385 OFFCURVE",
"1230 315 OFFCURVE",
"1159 315 CURVE SMOOTH",
"1125 315 OFFCURVE",
"1098 337 OFFCURVE",
"1098 380 CURVE SMOOTH"
);
}
);
width = 1692;
}
);
unicode = 11FE3;
},
{
glyphname = WetCultivationSign;
lastChange = "2019-07-24 07:32:03 +0000";
layers = (
{
layerId = master01;
paths = (
{
closed = 1;
nodes = (
"174 0 LINE",
"174 482 LINE",
"348 482 LINE",
"348 0 LINE",
"434 0 LINE",
"434 240 LINE",
"457 267 OFFCURVE",
"497 289 OFFCURVE",
"540 289 CURVE SMOOTH",
"610 289 OFFCURVE",
"646 250 OFFCURVE",
"646 171 CURVE SMOOTH",
"646 18 LINE",
"533 -1 OFFCURVE",
"487 -66 OFFCURVE",
"487 -148 CURVE SMOOTH",
"487 -266 OFFCURVE",
"589 -332 OFFCURVE",
"724 -332 CURVE SMOOTH",
"911 -332 OFFCURVE",
"984 -247 OFFCURVE",
"984 -54 CURVE SMOOTH",
"984 -42 LINE",
"1331 -42 LINE",
"1331 244 LINE",
"1245 244 LINE",
"1245 28 LINE",
"984 28 LINE",
"984 279 LINE",
"1151 279 LINE",
"1151 350 LINE",
"817 350 LINE SMOOTH",
"755 350 OFFCURVE",
"712 328 OFFCURVE",
"691 280 CURVE",
"671 333 OFFCURVE",
"625 362 OFFCURVE",
"558 362 CURVE SMOOTH",
"507 362 OFFCURVE",
"463 342 OFFCURVE",
"434 316 CURVE",
"434 482 LINE",
"609 482 LINE",
"609 554 LINE",
"88 554 LINE",
"88 0 LINE"
);
},
{
closed = 1;
nodes = (
"573 -61 OFFCURVE",
"652 -42 OFFCURVE",
"763 -42 CURVE SMOOTH",
"899 -42 LINE",
"899 -67 LINE SMOOTH",
"899 -217 OFFCURVE",
"834 -260 OFFCURVE",
"732 -260 CURVE SMOOTH",
"641 -260 OFFCURVE",
"573 -222 OFFCURVE",
"573 -147 CURVE SMOOTH"
);
},
{
closed = 1;
nodes = (
"729 182 LINE SMOOTH",
"729 249 OFFCURVE",
"767 279 OFFCURVE",
"809 279 CURVE SMOOTH",
"899 279 LINE",
"899 28 LINE",
"770 28 LINE SMOOTH",
"756 28 OFFCURVE",
"742 28 OFFCURVE",
"729 27 CURVE"
);
}
);
width = 1381;
}
);
unicode = 11FE4;
},
{
glyphname = DryCultivationSign;
lastChange = "2019-07-24 07:32:05 +0000";
layers = (
{
guideLines = (
{
angle = 90;
position = "{873, -337}";
}
);
layerId = master01;
paths = (
{
closed = 1;
nodes = (
"606 0 LINE",
"606 -51 LINE",
"466 -64 OFFCURVE",
"387 -128 OFFCURVE",
"387 -232 CURVE SMOOTH",
"387 -315 OFFCURVE",
"444 -370 OFFCURVE",
"528 -370 CURVE SMOOTH",
"640 -370 OFFCURVE",
"685 -301 OFFCURVE",
"685 -194 CURVE SMOOTH",
"685 -102 LINE",
"693 -102 LINE SMOOTH",
"738 -102 OFFCURVE",
"785 -109 OFFCURVE",
"820 -124 CURVE",
"775 -150 OFFCURVE",
"748 -196 OFFCURVE",
"748 -249 CURVE SMOOTH",
"748 -320 OFFCURVE",
"800 -368 OFFCURVE",
"873 -368 CURVE SMOOTH",
"949 -368 OFFCURVE",
"994 -317 OFFCURVE",
"994 -246 CURVE SMOOTH",
"994 -191 OFFCURVE",
"967 -147 OFFCURVE",
"924 -120 CURVE",
"942 -113 OFFCURVE",
"960 -109 OFFCURVE",
"981 -109 CURVE SMOOTH",
"1047 -109 OFFCURVE",
"1082 -147 OFFCURVE",
"1082 -209 CURVE SMOOTH",
"1082 -258 OFFCURVE",
"1070 -289 OFFCURVE",
"1050 -323 CURVE",
"1054 -369 LINE",
"1313 -369 LINE",
"1313 -311 LINE",
"1130 -311 LINE",
"1149 -277 OFFCURVE",
"1157 -234 OFFCURVE",
"1157 -198 CURVE SMOOTH",
"1157 -111 OFFCURVE",
"1099 -53 OFFCURVE",
"993 -53 CURVE SMOOTH",
"948 -53 OFFCURVE",
"905 -66 OFFCURVE",
"872 -88 CURVE",
"819 -61 OFFCURVE",
"757 -48 OFFCURVE",
"690 -47 CURVE",
"690 554 LINE",
"604 554 LINE",
"604 72 LINE",
"174 72 LINE",
"174 554 LINE",
"88 554 LINE",
"88 0 LINE"
);
},
{
closed = 1;
nodes = (
"461 -163 OFFCURVE",
"517 -120 OFFCURVE",
"608 -110 CURVE",
"608 -189 LINE SMOOTH",
"608 -261 OFFCURVE",
"582 -304 OFFCURVE",
"528 -304 CURVE SMOOTH",
"490 -304 OFFCURVE",
"461 -278 OFFCURVE",
"461 -232 CURVE SMOOTH"
);
},
{
closed = 1;
nodes = (
"815 -203 OFFCURVE",
"837 -168 OFFCURVE",
"871 -148 CURVE",
"906 -166 OFFCURVE",
"928 -200 OFFCURVE",
"928 -243 CURVE SMOOTH",
"928 -282 OFFCURVE",
"907 -308 OFFCURVE",
"873 -308 CURVE SMOOTH",
"839 -308 OFFCURVE",
"815 -282 OFFCURVE",
"815 -243 CURVE SMOOTH"
);
}
);
width = 1253;
}
);
unicode = 11FE5;
},
{
glyphname = LandSign;
lastChange = "2019-07-24 07:32:06 +0000";
layers = (
{
layerId = master01;
paths = (
{
closed = 1;
nodes = (
"60 -56 OFFCURVE",
"212 -291 OFFCURVE",
"561 -291 CURVE SMOOTH",
"572 -291 LINE SMOOTH",
"797 -291 OFFCURVE",
"1004 -174 OFFCURVE",
"1004 94 CURVE SMOOTH",
"1004 232 OFFCURVE",
"930 319 OFFCURVE",
"822 319 CURVE SMOOTH",
"773 319 OFFCURVE",
"735 302 OFFCURVE",
"710 284 CURVE",
"710 482 LINE",
"885 482 LINE",
"885 554 LINE",
"363 554 LINE",
"363 0 LINE",
"449 0 LINE",
"449 482 LINE",
"624 482 LINE",
"624 0 LINE",
"710 0 LINE",
"710 211 LINE",
"737 229 OFFCURVE",
"770 247 OFFCURVE",
"807 247 CURVE SMOOTH",
"877 247 OFFCURVE",
"916 193 OFFCURVE",
"916 94 CURVE SMOOTH",
"916 -114 OFFCURVE",
"775 -214 OFFCURVE",
"572 -214 CURVE SMOOTH",
"561 -214 LINE SMOOTH",
"272 -214 OFFCURVE",
"146 -23 OFFCURVE",
"146 244 CURVE SMOOTH",
"146 256 LINE SMOOTH",
"146 596 OFFCURVE",
"333 768 OFFCURVE",
"578 768 CURVE SMOOTH",
"734 768 OFFCURVE",
"829 719 OFFCURVE",
"921 673 CURVE SMOOTH",
"937 665 LINE SMOOTH",
"1019 623 OFFCURVE",
"1080 597 OFFCURVE",
"1164 597 CURVE SMOOTH",
"1299 597 OFFCURVE",
"1379 675 OFFCURVE",
"1404 786 CURVE",
"1333 808 LINE",
"1309 722 OFFCURVE",
"1248 671 OFFCURVE",
"1156 671 CURVE SMOOTH",
"1088 671 OFFCURVE",
"1041 698 OFFCURVE",
"957 738 CURVE SMOOTH",
"940 746 LINE SMOOTH",
"844 791 OFFCURVE",
"744 843 OFFCURVE",
"582 843 CURVE SMOOTH",
"263 843 OFFCURVE",
"60 623 OFFCURVE",
"60 279 CURVE SMOOTH",
"60 231 LINE SMOOTH"
);
}
);
width = 1324;
}
);
unicode = 11FE6;
},
{
glyphname = SaltPanSign;
lastChange = "2019-07-24 07:32:07 +0000";
layers = (
{
layerId = master01;
paths = (
{
closed = 1;
nodes = (
"29 -48 OFFCURVE",
"127 -124 OFFCURVE",
"321 -124 CURVE SMOOTH",
"342 -124 LINE SMOOTH",
"554 -124 OFFCURVE",
"723 -45 OFFCURVE",
"789 104 CURVE",
"947 104 LINE",
"947 -90 LINE SMOOTH",
"947 -134 OFFCURVE",
"943 -174 OFFCURVE",
"937 -204 CURVE",
"494 -204 LINE SMOOTH",
"425 -204 OFFCURVE",
"388 -234 OFFCURVE",
"388 -295 CURVE SMOOTH",
"388 -395 OFFCURVE",
"496 -451 OFFCURVE",
"656 -451 CURVE SMOOTH",
"664 -451 LINE SMOOTH",
"826 -451 OFFCURVE",
"953 -390 OFFCURVE",
"1004 -276 CURVE",
"1315 -276 LINE",
"1315 352 LINE",
"1229 352 LINE",
"1229 -204 LINE",
"1023 -204 LINE",
"1030 -163 OFFCURVE",
"1033 -111 OFFCURVE",
"1033 -70 CURVE SMOOTH",
"1033 554 LINE",
"947 554 LINE",
"947 176 LINE",
"810 176 LINE",
"814 200 OFFCURVE",
"816 226 OFFCURVE",
"816 252 CURVE SMOOTH",
"816 412 OFFCURVE",
"708 566 OFFCURVE",
"503 566 CURVE SMOOTH",
"399 566 OFFCURVE",
"300 517 OFFCURVE",
"300 393 CURVE SMOOTH",
"300 292 OFFCURVE",
"372 241 OFFCURVE",
"463 241 CURVE SMOOTH",
"568 241 OFFCURVE",
"626 302 OFFCURVE",
"626 396 CURVE SMOOTH",
"626 426 OFFCURVE",
"616 453 OFFCURVE",
"601 477 CURVE",
"690 438 OFFCURVE",
"730 348 OFFCURVE",
"730 251 CURVE SMOOTH",
"730 225 OFFCURVE",
"727 200 OFFCURVE",
"721 176 CURVE",
"206 176 LINE SMOOTH",
"125 176 OFFCURVE",
"99 166 OFFCURVE",
"74 149 CURVE SMOOTH",
"43 128 OFFCURVE",
"29 93 OFFCURVE",
"29 60 CURVE SMOOTH"
);
},
{
closed = 1;
nodes = (
"114 71 OFFCURVE",
"120 83 OFFCURVE",
"129 90 CURVE SMOOTH",
"144 101 OFFCURVE",
"154 104 OFFCURVE",
"217 104 CURVE SMOOTH",
"695 104 LINE",
"641 13 OFFCURVE",
"528 -51 OFFCURVE",
"344 -51 CURVE SMOOTH",
"327 -51 LINE SMOOTH",
"184 -51 OFFCURVE",
"114 -9 OFFCURVE",
"114 56 CURVE SMOOTH"
);
},
{
closed = 1;
nodes = (
"379 464 OFFCURVE",
"430 497 OFFCURVE",
"493 497 CURVE SMOOTH",
"514 496 LINE",
"539 468 OFFCURVE",
"548 438 OFFCURVE",
"548 400 CURVE SMOOTH",
"548 341 OFFCURVE",
"515 309 OFFCURVE",
"465 309 CURVE SMOOTH",
"410 309 OFFCURVE",
"379 347 OFFCURVE",
"379 397 CURVE SMOOTH"
);
},
{
closed = 1;
nodes = (
"471 -278 OFFCURVE",
"490 -276 OFFCURVE",
"506 -276 CURVE SMOOTH",
"915 -276 LINE",
"870 -344 OFFCURVE",
"785 -378 OFFCURVE",
"669 -378 CURVE SMOOTH",
"659 -378 LINE SMOOTH",
"536 -378 OFFCURVE",
"471 -345 OFFCURVE",
"471 -300 CURVE SMOOTH"
);
}
);
width = 1403;
}
);
unicode = 11FE7;
},
{
glyphname = TraditionalCreditSign;
lastChange = "2019-07-24 07:32:08 +0000";
layers = (
{
layerId = master01;
paths = (
{
closed = 1;
nodes = (
"57 63 OFFCURVE",
"142 -12 OFFCURVE",
"249 -12 CURVE SMOOTH",
"356 -12 OFFCURVE",
"422 54 OFFCURVE",
"422 165 CURVE SMOOTH",
"422 265 OFFCURVE",
"357 328 OFFCURVE",
"261 328 CURVE SMOOTH",
"218 328 OFFCURVE",
"175 313 OFFCURVE",
"140 290 CURVE",
"158 408 OFFCURVE",
"237 492 OFFCURVE",
"360 492 CURVE SMOOTH",
"484 492 OFFCURVE",
"563 411 OFFCURVE",
"563 269 CURVE SMOOTH",
"563 178 OFFCURVE",
"542 109 OFFCURVE",
"511 63 CURVE",
"515 0 LINE",
"872 0 LINE",
"872 -51 LINE",
"732 -64 OFFCURVE",
"653 -128 OFFCURVE",
"653 -232 CURVE SMOOTH",
"653 -315 OFFCURVE",
"710 -370 OFFCURVE",
"794 -370 CURVE SMOOTH",
"906 -370 OFFCURVE",
"951 -301 OFFCURVE",
"951 -194 CURVE SMOOTH",
"951 -102 LINE",
"959 -102 LINE SMOOTH",
"1004 -102 OFFCURVE",
"1051 -109 OFFCURVE",
"1086 -124 CURVE",
"1041 -150 OFFCURVE",
"1014 -196 OFFCURVE",
"1014 -249 CURVE SMOOTH",
"1014 -320 OFFCURVE",
"1066 -368 OFFCURVE",
"1139 -368 CURVE SMOOTH",
"1215 -368 OFFCURVE",
"1260 -317 OFFCURVE",
"1260 -246 CURVE SMOOTH",
"1260 -191 OFFCURVE",
"1233 -147 OFFCURVE",
"1190 -120 CURVE",
"1208 -113 OFFCURVE",
"1226 -109 OFFCURVE",
"1247 -109 CURVE SMOOTH",
"1313 -109 OFFCURVE",
"1348 -147 OFFCURVE",
"1348 -209 CURVE SMOOTH",
"1348 -258 OFFCURVE",
"1336 -289 OFFCURVE",
"1316 -323 CURVE",
"1320 -369 LINE",
"1579 -369 LINE",
"1579 -311 LINE",
"1396 -311 LINE",
"1415 -277 OFFCURVE",
"1423 -234 OFFCURVE",
"1423 -198 CURVE SMOOTH",
"1423 -111 OFFCURVE",
"1365 -53 OFFCURVE",
"1259 -53 CURVE SMOOTH",
"1214 -53 OFFCURVE",
"1171 -66 OFFCURVE",
"1138 -88 CURVE",
"1085 -61 OFFCURVE",
"1023 -48 OFFCURVE",
"956 -47 CURVE",
"956 554 LINE",
"870 554 LINE",
"870 72 LINE",
"603 72 LINE",
"630 131 OFFCURVE",
"651 194 OFFCURVE",
"651 280 CURVE SMOOTH",
"651 437 OFFCURVE",
"567 566 OFFCURVE",
"364 566 CURVE SMOOTH",
"199 566 OFFCURVE",
"57 457 OFFCURVE",
"57 243 CURVE SMOOTH"
);
},
{
closed = 1;
nodes = (
"169 240 OFFCURVE",
"206 258 OFFCURVE",
"247 258 CURVE SMOOTH",
"302 258 OFFCURVE",
"340 221 OFFCURVE",
"340 155 CURVE SMOOTH",
"340 91 OFFCURVE",
"305 56 OFFCURVE",
"253 56 CURVE SMOOTH",
"191 56 OFFCURVE",
"143 97 OFFCURVE",
"137 212 CURVE"
);
},
{
closed = 1;
nodes = (
"727 -163 OFFCURVE",
"783 -120 OFFCURVE",
"874 -110 CURVE",
"874 -189 LINE SMOOTH",
"874 -261 OFFCURVE",
"848 -304 OFFCURVE",
"794 -304 CURVE SMOOTH",
"756 -304 OFFCURVE",
"727 -278 OFFCURVE",
"727 -232 CURVE SMOOTH"
);
},
{
closed = 1;
nodes = (
"1081 -203 OFFCURVE",
"1103 -168 OFFCURVE",
"1137 -148 CURVE",
"1172 -166 OFFCURVE",
"1194 -200 OFFCURVE",
"1194 -243 CURVE SMOOTH",
"1194 -282 OFFCURVE",
"1173 -308 OFFCURVE",
"1139 -308 CURVE SMOOTH",
"1105 -308 OFFCURVE",
"1081 -282 OFFCURVE",
"1081 -243 CURVE SMOOTH"
);
}
);
width = 1519;
}
);
unicode = 11FE8;
},
{
glyphname = TraditionalNumberSign;
lastChange = "2019-07-24 07:32:10 +0000";
layers = (
{
layerId = master01;
paths = (
{
closed = 1;
nodes = (
"174 0 LINE",
"174 482 LINE",
"348 482 LINE",
"348 0 LINE",
"434 0 LINE",
"434 240 LINE",
"457 267 OFFCURVE",
"496 289 OFFCURVE",
"538 289 CURVE SMOOTH",
"607 289 OFFCURVE",
"642 250 OFFCURVE",
"642 171 CURVE SMOOTH",
"642 0 LINE",
"725 0 LINE",
"725 158 LINE SMOOTH",
"725 248 OFFCURVE",
"768 289 OFFCURVE",
"824 289 CURVE SMOOTH",
"879 289 OFFCURVE",
"912 247 OFFCURVE",
"912 183 CURVE SMOOTH",
"912 136 OFFCURVE",
"899 96 OFFCURVE",
"882 62 CURVE",
"886 0 LINE",
"1123 0 LINE",
"1123 72 LINE",
"970 72 LINE",
"988 107 OFFCURVE",
"998 149 OFFCURVE",
"998 195 CURVE SMOOTH",
"998 297 OFFCURVE",
"935 362 OFFCURVE",
"836 362 CURVE SMOOTH",
"765 362 OFFCURVE",
"716 326 OFFCURVE",
"691 268 CURVE",
"673 326 OFFCURVE",
"626 362 OFFCURVE",
"556 362 CURVE SMOOTH",
"506 362 OFFCURVE",
"463 342 OFFCURVE",
"434 316 CURVE",
"434 482 LINE",
"609 482 LINE",
"609 554 LINE",
"88 554 LINE",
"88 0 LINE"
);
}
);
width = 1140;
}
);
unicode = 11FE9;
},
{
glyphname = CurrentSign;
lastChange = "2019-07-24 07:32:11 +0000";
layers = (
{
guideLines = (
{
position = "{892, 362}";
}
);
layerId = master01;
paths = (
{
closed = 1;
nodes = (
"174 0 LINE",
"174 482 LINE",
"348 482 LINE",
"348 0 LINE",
"434 0 LINE",
"434 240 LINE",
"456 267 OFFCURVE",
"495 289 OFFCURVE",
"537 289 CURVE SMOOTH",
"605 289 OFFCURVE",
"640 250 OFFCURVE",
"640 171 CURVE SMOOTH",
"640 0 LINE",
"723 0 LINE",
"723 166 LINE SMOOTH",
"723 241 OFFCURVE",
"758 288 OFFCURVE",
"820 288 CURVE SMOOTH",
"888 288 OFFCURVE",
"920 230 OFFCURVE",
"920 143 CURVE SMOOTH",
"920 52 OFFCURVE",
"900 -26 OFFCURVE",
"874 -84 CURVE",
"432 -84 LINE SMOOTH",
"375 -84 OFFCURVE",
"355 -90 OFFCURVE",
"337 -103 CURVE",
"318 -118 OFFCURVE",
"306 -140 OFFCURVE",
"306 -171 CURVE SMOOTH",
"306 -276 OFFCURVE",
"426 -321 OFFCURVE",
"544 -321 CURVE SMOOTH",
"556 -321 LINE SMOOTH",
"721 -321 OFFCURVE",
"853 -267 OFFCURVE",
"931 -156 CURVE",
"1238 -156 LINE",
"1238 352 LINE",
"1152 352 LINE",
"1152 -84 LINE",
"965 -84 LINE",
"992 -19 OFFCURVE",
"1009 60 OFFCURVE",
"1009 148 CURVE SMOOTH",
"1009 280 OFFCURVE",
"949 362 OFFCURVE",
"835 362 CURVE SMOOTH",
"769 362 OFFCURVE",
"710 330 OFFCURVE",
"685 273 CURVE",
"666 328 OFFCURVE",
"619 362 OFFCURVE",
"552 362 CURVE SMOOTH",
"503 362 OFFCURVE",
"461 343 OFFCURVE",
"434 316 CURVE",
"434 482 LINE",
"603 482 LINE",
"603 554 LINE",
"88 554 LINE",
"88 0 LINE"
);
},
{
closed = 1;
nodes = (
"389 -158 OFFCURVE",
"408 -156 OFFCURVE",
"424 -156 CURVE SMOOTH",
"833 -156 LINE",
"764 -221 OFFCURVE",
"676 -248 OFFCURVE",
"561 -248 CURVE SMOOTH",
"557 -248 LINE SMOOTH",
"447 -248 OFFCURVE",
"389 -217 OFFCURVE",
"389 -180 CURVE SMOOTH"
);
}
);
width = 1326;
}
);
unicode = 11FEA;
},
{
glyphname = AndOddSign;
lastChange = "2019-08-11 16:25:39 +0000";
layers = (
{
layerId = master01;
paths = (
{
closed = 1;
nodes = (
"49 47 OFFCURVE",
"140 -12 OFFCURVE",
"261 -12 CURVE SMOOTH",
"345 -12 OFFCURVE",
"411 6 OFFCURVE",
"452 57 CURVE SMOOTH",
"480 91 OFFCURVE",
"496 136 OFFCURVE",
"496 226 CURVE SMOOTH",
"496 258 LINE",
"683 258 LINE",
"683 328 LINE",
"496 328 LINE",
"496 482 LINE",
"683 482 LINE",
"683 554 LINE",
"455 554 LINE",
"404 588 OFFCURVE",
"370 636 OFFCURVE",
"370 694 CURVE SMOOTH",
"370 749 OFFCURVE",
"405 782 OFFCURVE",
"454 782 CURVE SMOOTH",
"504 782 OFFCURVE",
"532 747 OFFCURVE",
"532 681 CURVE SMOOTH",
"532 650 LINE",
"613 650 LINE",
"613 678 LINE SMOOTH",
"613 776 OFFCURVE",
"668 821 OFFCURVE",
"742 821 CURVE SMOOTH",
"779 821 OFFCURVE",
"806 812 OFFCURVE",
"824 798 CURVE",
"748 791 OFFCURVE",
"698 744 OFFCURVE",
"698 677 CURVE SMOOTH",
"698 606 OFFCURVE",
"751 563 OFFCURVE",
"818 563 CURVE SMOOTH",
"903 563 OFFCURVE",
"941 614 OFFCURVE",
"941 686 CURVE SMOOTH",
"941 704 OFFCURVE",
"938 725 OFFCURVE",
"930 746 CURVE",
"982 738 OFFCURVE",
"1009 701 OFFCURVE",
"1009 651 CURVE SMOOTH",
"1009 602 OFFCURVE",
"997 573 OFFCURVE",
"977 538 CURVE",
"981 492 LINE",
"1200 492 LINE",
"1200 550 LINE",
"1057 550 LINE",
"1076 584 OFFCURVE",
"1084 623 OFFCURVE",
"1084 659 CURVE SMOOTH",
"1084 743 OFFCURVE",
"1020 804 OFFCURVE",
"899 807 CURVE",
"869 847 OFFCURVE",
"818 881 OFFCURVE",
"736 881 CURVE SMOOTH",
"656 881 OFFCURVE",
"592 843 OFFCURVE",
"571 777 CURVE",
"551 824 OFFCURVE",
"508 852 OFFCURVE",
"445 852 CURVE SMOOTH",
"352 852 OFFCURVE",
"293 788 OFFCURVE",
"293 697 CURVE SMOOTH",
"293 640 OFFCURVE",
"321 590 OFFCURVE",
"362 554 CURVE",
"160 554 LINE",
"160 303 LINE",
"82 274 OFFCURVE",
"49 221 OFFCURVE",
"49 152 CURVE SMOOTH"
);
},
{
closed = 1;
nodes = (
"135 191 OFFCURVE",
"149 215 OFFCURVE",
"178 232 CURVE SMOOTH",
"211 251 OFFCURVE",
"257 258 OFFCURVE",
"325 258 CURVE SMOOTH",
"411 258 LINE",
"411 213 LINE SMOOTH",
"411 94 OFFCURVE",
"356 60 OFFCURVE",
"269 60 CURVE SMOOTH",
"192 60 OFFCURVE",
"135 91 OFFCURVE",
"135 153 CURVE SMOOTH"
);
},
{
closed = 1;
nodes = (
"239 482 LINE",
"411 482 LINE",
"411 328 LINE",
"332 328 LINE SMOOTH",
"298 328 OFFCURVE",
"267 326 OFFCURVE",
"239 322 CURVE"
);
},
{
closed = 1;
nodes = (
"767 719 OFFCURVE",
"803 747 OFFCURVE",
"859 749 CURVE",
"867 733 OFFCURVE",
"872 714 OFFCURVE",
"872 691 CURVE SMOOTH",
"872 652 OFFCURVE",
"855 625 OFFCURVE",
"818 625 CURVE SMOOTH",
"791 625 OFFCURVE",
"767 643 OFFCURVE",
"767 677 CURVE SMOOTH"
);
}
);
width = 1240;
}
);
unicode = 11FEB;
},
{
glyphname = SpentSign;
lastChange = "2019-07-24 07:32:13 +0000";
layers = (
{
layerId = master01;
paths = (
{
closed = 1;
nodes = (
"690 0 LINE",
"690 518 LINE",
"606 518 LINE SMOOTH",
"506 518 OFFCURVE",
"427 568 OFFCURVE",
"427 665 CURVE SMOOTH",
"427 755 OFFCURVE",
"492 806 OFFCURVE",
"583 806 CURVE SMOOTH",
"587 806 LINE",
"556 785 OFFCURVE",
"539 754 OFFCURVE",
"539 713 CURVE SMOOTH",
"539 653 OFFCURVE",
"586 612 OFFCURVE",
"651 612 CURVE SMOOTH",
"719 612 OFFCURVE",
"759 655 OFFCURVE",
"759 716 CURVE SMOOTH",
"759 762 OFFCURVE",
"738 801 OFFCURVE",
"700 821 CURVE",
"710 824 OFFCURVE",
"721 825 OFFCURVE",
"735 825 CURVE SMOOTH",
"802 825 OFFCURVE",
"840 779 OFFCURVE",
"840 709 CURVE SMOOTH",
"840 659 OFFCURVE",
"828 628 OFFCURVE",
"808 593 CURVE",
"812 547 LINE",
"1031 547 LINE",
"1031 605 LINE",
"888 605 LINE",
"907 640 OFFCURVE",
"915 683 OFFCURVE",
"915 720 CURVE SMOOTH",
"915 815 OFFCURVE",
"854 881 OFFCURVE",
"746 881 CURVE SMOOTH",
"707 881 OFFCURVE",
"672 869 OFFCURVE",
"644 851 CURVE",
"621 859 OFFCURVE",
"594 864 OFFCURVE",
"565 864 CURVE SMOOTH",
"431 864 OFFCURVE",
"350 780 OFFCURVE",
"350 665 CURVE SMOOTH",
"350 529 OFFCURVE",
"450 457 OFFCURVE",
"604 450 CURVE",
"604 72 LINE",
"174 72 LINE",
"174 554 LINE",
"88 554 LINE",
"88 0 LINE"
);
},
{
closed = 1;
nodes = (
"602 754 OFFCURVE",
"619 781 OFFCURVE",
"647 797 CURVE",
"677 784 OFFCURVE",
"697 756 OFFCURVE",
"697 723 CURVE SMOOTH",
"697 690 OFFCURVE",
"680 668 OFFCURVE",
"651 668 CURVE SMOOTH",
"623 668 OFFCURVE",
"602 690 OFFCURVE",
"602 723 CURVE SMOOTH"
);
}
);
width = 1031;
}
);
unicode = 11FEC;
},
{
glyphname = TotalSign;
lastChange = "2019-07-24 07:32:14 +0000";
layers = (
{
layerId = master01;
paths = (
{
closed = 1;
nodes = (
"29 -48 OFFCURVE",
"127 -124 OFFCURVE",
"321 -124 CURVE SMOOTH",
"342 -124 LINE SMOOTH",
"554 -124 OFFCURVE",
"723 -45 OFFCURVE",
"789 104 CURVE",
"947 104 LINE",
"947 -49 LINE",
"811 -66 OFFCURVE",
"735 -130 OFFCURVE",
"735 -232 CURVE SMOOTH",
"735 -315 OFFCURVE",
"792 -370 OFFCURVE",
"876 -370 CURVE SMOOTH",
"988 -370 OFFCURVE",
"1033 -301 OFFCURVE",
"1033 -194 CURVE SMOOTH",
"1033 -102 LINE",
"1041 -102 LINE SMOOTH",
"1086 -102 OFFCURVE",
"1133 -109 OFFCURVE",
"1168 -124 CURVE",
"1123 -150 OFFCURVE",
"1096 -196 OFFCURVE",
"1096 -249 CURVE SMOOTH",
"1096 -320 OFFCURVE",
"1148 -368 OFFCURVE",
"1221 -368 CURVE SMOOTH",
"1297 -368 OFFCURVE",
"1342 -317 OFFCURVE",
"1342 -246 CURVE SMOOTH",
"1342 -191 OFFCURVE",
"1315 -147 OFFCURVE",
"1272 -120 CURVE",
"1290 -113 OFFCURVE",
"1308 -109 OFFCURVE",
"1329 -109 CURVE SMOOTH",
"1395 -109 OFFCURVE",
"1430 -147 OFFCURVE",
"1430 -209 CURVE SMOOTH",
"1430 -258 OFFCURVE",
"1418 -289 OFFCURVE",
"1398 -323 CURVE",
"1402 -369 LINE",
"1661 -369 LINE",
"1661 -311 LINE",
"1478 -311 LINE",
"1497 -277 OFFCURVE",
"1505 -234 OFFCURVE",
"1505 -198 CURVE SMOOTH",
"1505 -111 OFFCURVE",
"1447 -53 OFFCURVE",
"1341 -53 CURVE SMOOTH",
"1296 -53 OFFCURVE",
"1254 -66 OFFCURVE",
"1220 -88 CURVE",
"1168 -58 OFFCURVE",
"1106 -44 OFFCURVE",
"1038 -44 CURVE SMOOTH",
"1033 -44 LINE",
"1033 554 LINE",
"947 554 LINE",
"947 176 LINE",
"810 176 LINE",
"814 200 OFFCURVE",
"816 226 OFFCURVE",
"816 252 CURVE SMOOTH",
"816 412 OFFCURVE",
"708 566 OFFCURVE",
"503 566 CURVE SMOOTH",
"399 566 OFFCURVE",
"300 517 OFFCURVE",
"300 393 CURVE SMOOTH",
"300 292 OFFCURVE",
"372 241 OFFCURVE",
"463 241 CURVE SMOOTH",
"568 241 OFFCURVE",
"626 302 OFFCURVE",
"626 396 CURVE SMOOTH",
"626 426 OFFCURVE",
"616 453 OFFCURVE",
"601 477 CURVE",
"690 438 OFFCURVE",
"730 348 OFFCURVE",
"730 251 CURVE SMOOTH",
"730 225 OFFCURVE",
"727 200 OFFCURVE",
"721 176 CURVE",
"206 176 LINE SMOOTH",
"125 176 OFFCURVE",
"99 166 OFFCURVE",
"74 149 CURVE SMOOTH",
"43 128 OFFCURVE",
"29 93 OFFCURVE",
"29 60 CURVE SMOOTH"
);
},
{
closed = 1;
nodes = (
"114 71 OFFCURVE",
"120 83 OFFCURVE",
"129 90 CURVE SMOOTH",
"144 101 OFFCURVE",
"154 104 OFFCURVE",
"217 104 CURVE SMOOTH",
"695 104 LINE",
"641 13 OFFCURVE",
"528 -51 OFFCURVE",
"344 -51 CURVE SMOOTH",
"327 -51 LINE SMOOTH",
"184 -51 OFFCURVE",
"114 -9 OFFCURVE",
"114 56 CURVE SMOOTH"
);
},
{
closed = 1;
nodes = (
"379 464 OFFCURVE",
"430 497 OFFCURVE",
"493 497 CURVE SMOOTH",
"514 496 LINE",
"539 468 OFFCURVE",
"548 438 OFFCURVE",
"548 400 CURVE SMOOTH",
"548 341 OFFCURVE",
"515 309 OFFCURVE",
"465 309 CURVE SMOOTH",
"410 309 OFFCURVE",
"379 347 OFFCURVE",
"379 397 CURVE SMOOTH"
);
},
{
closed = 1;
nodes = (
"809 -163 OFFCURVE",
"865 -120 OFFCURVE",
"956 -110 CURVE",
"956 -189 LINE SMOOTH",
"956 -261 OFFCURVE",
"930 -304 OFFCURVE",
"876 -304 CURVE SMOOTH",
"838 -304 OFFCURVE",
"809 -278 OFFCURVE",
"809 -232 CURVE SMOOTH"
);
},
{
closed = 1;
nodes = (
"1163 -203 OFFCURVE",
"1185 -168 OFFCURVE",
"1219 -148 CURVE",
"1254 -166 OFFCURVE",
"1276 -200 OFFCURVE",
"1276 -243 CURVE SMOOTH",
"1276 -282 OFFCURVE",
"1255 -308 OFFCURVE",
"1221 -308 CURVE SMOOTH",
"1187 -308 OFFCURVE",
"1163 -282 OFFCURVE",
"1163 -243 CURVE SMOOTH"
);
}
);
width = 1601;
}
);
unicode = 11FED;
},
{
glyphname = InPossessionSign;
lastChange = "2019-07-24 07:32:15 +0000";
layers = (
{
layerId = master01;
paths = (
{
closed = 1;
nodes = (
"57 63 OFFCURVE",
"142 -12 OFFCURVE",
"249 -12 CURVE SMOOTH",
"356 -12 OFFCURVE",
"422 54 OFFCURVE",
"422 165 CURVE SMOOTH",
"422 265 OFFCURVE",
"357 328 OFFCURVE",
"261 328 CURVE SMOOTH",
"218 328 OFFCURVE",
"175 313 OFFCURVE",
"140 290 CURVE",
"158 408 OFFCURVE",
"237 492 OFFCURVE",
"360 492 CURVE SMOOTH",
"484 492 OFFCURVE",
"563 411 OFFCURVE",
"563 269 CURVE SMOOTH",
"563 178 OFFCURVE",
"542 109 OFFCURVE",
"511 63 CURVE",
"515 0 LINE",
"881 0 LINE",
"881 -119 LINE",
"818 -142 OFFCURVE",
"792 -187 OFFCURVE",
"792 -244 CURVE SMOOTH",
"792 -327 OFFCURVE",
"864 -376 OFFCURVE",
"958 -376 CURVE SMOOTH",
"1092 -376 OFFCURVE",
"1145 -307 OFFCURVE",
"1145 -170 CURVE SMOOTH",
"1145 -166 LINE",
"1385 -166 LINE",
"1385 72 LINE",
"1308 72 LINE",
"1308 -102 LINE",
"1145 -102 LINE",
"1145 2 LINE",
"1244 2 LINE",
"1244 68 LINE",
"956 68 LINE",
"956 554 LINE",
"870 554 LINE",
"870 72 LINE",
"603 72 LINE",
"630 131 OFFCURVE",
"651 194 OFFCURVE",
"651 280 CURVE SMOOTH",
"651 437 OFFCURVE",
"567 566 OFFCURVE",
"364 566 CURVE SMOOTH",
"199 566 OFFCURVE",
"57 457 OFFCURVE",
"57 243 CURVE SMOOTH"
);
},
{
closed = 1;
nodes = (
"169 240 OFFCURVE",
"206 258 OFFCURVE",
"247 258 CURVE SMOOTH",
"302 258 OFFCURVE",
"340 221 OFFCURVE",
"340 155 CURVE SMOOTH",
"340 91 OFFCURVE",
"305 56 OFFCURVE",
"253 56 CURVE SMOOTH",
"191 56 OFFCURVE",
"143 97 OFFCURVE",
"137 212 CURVE"
);
},
{
closed = 1;
nodes = (
"872 -182 OFFCURVE",
"920 -166 OFFCURVE",
"986 -166 CURVE SMOOTH",
"1068 -166 LINE",
"1068 -183 LINE SMOOTH",
"1068 -277 OFFCURVE",
"1027 -310 OFFCURVE",
"962 -310 CURVE SMOOTH",
"910 -310 OFFCURVE",
"872 -287 OFFCURVE",
"872 -243 CURVE SMOOTH"
);
},
{
closed = 1;
nodes = (
"953 2 LINE",
"1068 2 LINE",
"1068 -102 LINE",
"993 -102 LINE SMOOTH",
"979 -102 OFFCURVE",
"966 -103 OFFCURVE",
"953 -104 CURVE"
);
}
);
width = 1425;
}
);
unicode = 11FEE;
},
{
glyphname = StartingFrom;
lastChange = "2019-07-24 07:32:16 +0000";
layers = (
{
layerId = master01;
paths = (
{
closed = 1;
nodes = (
"60 -103 OFFCURVE",
"216 -273 OFFCURVE",
"450 -273 CURVE SMOOTH",
"656 -273 OFFCURVE",
"766 -161 OFFCURVE",
"779 0 CURVE",
"808 0 LINE SMOOTH",
"923 0 OFFCURVE",
"983 14 OFFCURVE",
"1030 60 CURVE SMOOTH",
"1074 103 OFFCURVE",
"1093 169 OFFCURVE",
"1093 262 CURVE SMOOTH",
"1093 442 OFFCURVE",
"1025 566 OFFCURVE",
"876 566 CURVE SMOOTH",
"812 566 OFFCURVE",
"771 548 OFFCURVE",
"741 515 CURVE SMOOTH",
"711 481 OFFCURVE",
"696 437 OFFCURVE",
"696 355 CURVE SMOOTH",
"696 72 LINE",
"470 72 LINE",
"470 554 LINE",
"384 554 LINE",
"384 0 LINE",
"695 0 LINE",
"681 -124 OFFCURVE",
"604 -196 OFFCURVE",
"450 -196 CURVE SMOOTH",
"277 -196 OFFCURVE",
"146 -80 OFFCURVE",
"146 240 CURVE SMOOTH",
"146 248 LINE SMOOTH",
"146 603 OFFCURVE",
"331 768 OFFCURVE",
"588 768 CURVE SMOOTH",
"741 768 OFFCURVE",
"844 717 OFFCURVE",
"940 673 CURVE SMOOTH",
"957 665 LINE SMOOTH",
"1040 626 OFFCURVE",
"1099 597 OFFCURVE",
"1184 597 CURVE SMOOTH",
"1319 597 OFFCURVE",
"1399 675 OFFCURVE",
"1424 786 CURVE",
"1353 808 LINE",
"1329 722 OFFCURVE",
"1268 671 OFFCURVE",
"1176 671 CURVE SMOOTH",
"1107 671 OFFCURVE",
"1063 699 OFFCURVE",
"977 738 CURVE SMOOTH",
"955 748 LINE SMOOTH",
"855 793 OFFCURVE",
"748 843 OFFCURVE",
"587 843 CURVE SMOOTH",
"258 843 OFFCURVE",
"60 625 OFFCURVE",
"60 259 CURVE SMOOTH",
"60 231 LINE SMOOTH"
);
},
{
closed = 1;
nodes = (
"782 338 LINE SMOOTH",
"782 420 OFFCURVE",
"792 447 OFFCURVE",
"814 471 CURVE SMOOTH",
"829 487 OFFCURVE",
"851 494 OFFCURVE",
"874 494 CURVE SMOOTH",
"967 494 OFFCURVE",
"1005 394 OFFCURVE",
"1005 267 CURVE SMOOTH",
"1005 124 OFFCURVE",
"964 72 OFFCURVE",
"829 72 CURVE SMOOTH",
"782 72 LINE"
);
}
);
width = 1344;
}
);
unicode = 11FEF;
},
{
glyphname = Muthaliya;
lastChange = "2019-07-24 07:32:18 +0000";
layers = (
{
layerId = master01;
paths = (
{
closed = 1;
nodes = (
"58 -79 OFFCURVE",
"215 -321 OFFCURVE",
"664 -321 CURVE SMOOTH",
"684 -321 LINE SMOOTH",
"1128 -321 OFFCURVE",
"1342 -142 OFFCURVE",
"1342 278 CURVE SMOOTH",
"1342 607 OFFCURVE",
"1177 827 OFFCURVE",
"924 827 CURVE SMOOTH",
"786 827 OFFCURVE",
"709 755 OFFCURVE",
"709 660 CURVE SMOOTH",
"709 616 OFFCURVE",
"728 577 OFFCURVE",
"755 549 CURVE",
"737 541 OFFCURVE",
"722 529 OFFCURVE",
"709 515 CURVE SMOOTH",
"679 481 OFFCURVE",
"664 437 OFFCURVE",
"664 355 CURVE SMOOTH",
"664 72 LINE",
"438 72 LINE",
"438 554 LINE",
"352 554 LINE",
"352 0 LINE",
"776 0 LINE SMOOTH",
"891 0 OFFCURVE",
"951 14 OFFCURVE",
"998 60 CURVE SMOOTH",
"1042 103 OFFCURVE",
"1061 169 OFFCURVE",
"1061 262 CURVE SMOOTH",
"1061 442 OFFCURVE",
"993 566 OFFCURVE",
"844 566 CURVE SMOOTH",
"833 566 LINE",
"808 587 OFFCURVE",
"792 620 OFFCURVE",
"792 654 CURVE SMOOTH",
"792 714 OFFCURVE",
"838 751 OFFCURVE",
"924 751 CURVE SMOOTH",
"1136 751 OFFCURVE",
"1254 537 OFFCURVE",
"1254 277 CURVE SMOOTH",
"1254 -89 OFFCURVE",
"1075 -244 OFFCURVE",
"674 -244 CURVE SMOOTH",
"295 -244 OFFCURVE",
"144 -55 OFFCURVE",
"144 157 CURVE SMOOTH",
"144 292 OFFCURVE",
"192 401 OFFCURVE",
"270 510 CURVE",
"196 554 LINE",
"121 447 OFFCURVE",
"58 323 OFFCURVE",
"58 166 CURVE SMOOTH",
"58 147 LINE SMOOTH"
);
},
{
closed = 1;
nodes = (
"750 338 LINE SMOOTH",
"750 420 OFFCURVE",
"760 447 OFFCURVE",
"782 471 CURVE SMOOTH",
"797 487 OFFCURVE",
"819 494 OFFCURVE",
"842 494 CURVE SMOOTH",
"935 494 OFFCURVE",
"973 394 OFFCURVE",
"973 267 CURVE SMOOTH",
"973 124 OFFCURVE",
"932 72 OFFCURVE",
"797 72 CURVE SMOOTH",
"750 72 LINE"
);
}
);
width = 1414;
}
);
unicode = 11FF0;
},
{
glyphname = Vakaiyaraa;
lastChange = "2019-07-24 07:32:19 +0000";
layers = (
{
guideLines = (
{
position = "{1229, -301}";
},
{
angle = 180;
position = "{1208, -242}";
},
{
angle = 180;
position = "{1208, 50}";
}
);
layerId = master01;
paths = (
{
closed = 1;
nodes = (
"57 63 OFFCURVE",
"142 -12 OFFCURVE",
"249 -12 CURVE SMOOTH",
"356 -12 OFFCURVE",
"422 54 OFFCURVE",
"422 165 CURVE SMOOTH",
"422 265 OFFCURVE",
"357 328 OFFCURVE",
"261 328 CURVE SMOOTH",
"218 328 OFFCURVE",
"175 313 OFFCURVE",
"140 290 CURVE",
"158 408 OFFCURVE",
"237 492 OFFCURVE",
"360 492 CURVE SMOOTH",
"484 492 OFFCURVE",
"563 411 OFFCURVE",
"563 269 CURVE SMOOTH",
"563 178 OFFCURVE",
"542 109 OFFCURVE",
"511 63 CURVE",
"515 0 LINE",
"870 0 LINE",
"869 -33 OFFCURVE",
"867 -62 OFFCURVE",
"860 -84 CURVE",
"316 -84 LINE SMOOTH",
"247 -84 OFFCURVE",
"210 -114 OFFCURVE",
"210 -175 CURVE SMOOTH",
"210 -285 OFFCURVE",
"329 -341 OFFCURVE",
"504 -341 CURVE SMOOTH",
"510 -341 LINE SMOOTH",
"706 -341 OFFCURVE",
"859 -281 OFFCURVE",
"927 -146 CURVE",
"1067 -146 LINE",
"1067 -152 LINE SMOOTH",
"1067 -248 OFFCURVE",
"1117 -301 OFFCURVE",
"1196 -301 CURVE SMOOTH",
"1262 -301 OFFCURVE",
"1308 -262 OFFCURVE",
"1308 -191 CURVE SMOOTH",
"1308 -119 OFFCURVE",
"1271 -84 OFFCURVE",
"1188 -84 CURVE SMOOTH",
"1143 -84 LINE",
"1162 -34 OFFCURVE",
"1206 -11 OFFCURVE",
"1259 -11 CURVE SMOOTH",
"1335 -11 OFFCURVE",
"1369 -55 OFFCURVE",
"1375 -135 CURVE SMOOTH",
"1377 -162 LINE SMOOTH",
"1380 -201 OFFCURVE",
"1389 -241 OFFCURVE",
"1413 -265 CURVE SMOOTH",
"1437 -289 OFFCURVE",
"1470 -301 OFFCURVE",
"1513 -301 CURVE SMOOTH",
"1612 -301 OFFCURVE",
"1656 -234 OFFCURVE",
"1656 -137 CURVE SMOOTH",
"1656 -57 OFFCURVE",
"1628 9 OFFCURVE",
"1592 61 CURVE",
"1528 23 LINE",
"1557 -19 OFFCURVE",
"1582 -72 OFFCURVE",
"1582 -133 CURVE SMOOTH",
"1582 -199 OFFCURVE",
"1560 -236 OFFCURVE",
"1513 -236 CURVE SMOOTH",
"1493 -236 OFFCURVE",
"1475 -229 OFFCURVE",
"1463 -213 CURVE SMOOTH",
"1451 -197 OFFCURVE",
"1448 -172 OFFCURVE",
"1446 -141 CURVE SMOOTH",
"1444 -113 LINE SMOOTH",
"1437 -15 OFFCURVE",
"1378 51 OFFCURVE",
"1257 51 CURVE SMOOTH",
"1177 51 OFFCURVE",
"1099 5 OFFCURVE",
"1075 -84 CURVE",
"944 -84 LINE",
"953 -38 OFFCURVE",
"956 30 OFFCURVE",
"956 80 CURVE SMOOTH",
"956 554 LINE",
"870 554 LINE",
"870 72 LINE",
"603 72 LINE",
"630 131 OFFCURVE",
"651 194 OFFCURVE",
"651 280 CURVE SMOOTH",
"651 437 OFFCURVE",
"567 566 OFFCURVE",
"364 566 CURVE SMOOTH",
"199 566 OFFCURVE",
"57 457 OFFCURVE",
"57 243 CURVE SMOOTH"
);
},
{
closed = 1;
nodes = (
"169 240 OFFCURVE",
"206 258 OFFCURVE",
"247 258 CURVE SMOOTH",
"302 258 OFFCURVE",
"340 221 OFFCURVE",
"340 155 CURVE SMOOTH",
"340 91 OFFCURVE",
"305 56 OFFCURVE",
"253 56 CURVE SMOOTH",
"191 56 OFFCURVE",
"143 97 OFFCURVE",
"137 212 CURVE"
);
},
{
closed = 1;
nodes = (
"293 -158 OFFCURVE",
"312 -156 OFFCURVE",
"328 -156 CURVE SMOOTH",
"825 -156 LINE",
"827 -156 LINE",
"766 -238 OFFCURVE",
"658 -268 OFFCURVE",
"512 -268 CURVE SMOOTH",
"502 -268 LINE SMOOTH",
"366 -268 OFFCURVE",
"293 -230 OFFCURVE",
"293 -180 CURVE SMOOTH"
);
},
{
closed = 1;
nodes = (
"1131 -143 LINE",
"1180 -143 LINE SMOOTH",
"1225 -143 OFFCURVE",
"1245 -160 OFFCURVE",
"1245 -194 CURVE SMOOTH",
"1245 -228 OFFCURVE",
"1222 -242 OFFCURVE",
"1194 -242 CURVE SMOOTH",
"1150 -242 OFFCURVE",
"1131 -212 OFFCURVE",
"1131 -154 CURVE"
);
}
);
width = 1696;
}
);
unicode = 11FF1;
},
{
glyphname = PunctuationEndOfText;
lastChange = "2019-07-24 07:32:49 +0000";
layers = (
{
layerId = master01;
paths = (
{
closed = 1;
nodes = (
"57 63 OFFCURVE",
"142 -12 OFFCURVE",
"249 -12 CURVE SMOOTH",
"356 -12 OFFCURVE",
"422 54 OFFCURVE",
"422 165 CURVE SMOOTH",
"422 265 OFFCURVE",
"357 328 OFFCURVE",
"261 328 CURVE SMOOTH",
"217 328 OFFCURVE",
"175 313 OFFCURVE",
"139 289 CURVE",
"156 418 OFFCURVE",
"236 492 OFFCURVE",
"356 492 CURVE SMOOTH",
"495 492 OFFCURVE",
"557 402 OFFCURVE",
"557 263 CURVE SMOOTH",
"557 0 LINE",
"643 0 LINE",
"643 261 LINE SMOOTH",
"643 338 OFFCURVE",
"676 394 OFFCURVE",
"747 394 CURVE SMOOTH",
"829 394 OFFCURVE",
"848 333 OFFCURVE",
"848 228 CURVE SMOOTH",
"848 0 LINE",
"935 0 LINE",
"935 111 LINE SMOOTH",
"935 184 OFFCURVE",
"969 234 OFFCURVE",
"1033 234 CURVE SMOOTH",
"1106 234 OFFCURVE",
"1125 177 OFFCURVE",
"1125 78 CURVE SMOOTH",
"1125 0 LINE",
"1535 0 LINE",
"1535 72 LINE",
"1212 72 LINE",
"1212 93 LINE SMOOTH",
"1212 223 OFFCURVE",
"1167 306 OFFCURVE",
"1050 306 CURVE SMOOTH",
"997 306 OFFCURVE",
"951 288 OFFCURVE",
"923 243 CURVE",
"922 379 OFFCURVE",
"876 466 OFFCURVE",
"756 466 CURVE SMOOTH",
"687 466 OFFCURVE",
"635 433 OFFCURVE",
"609 381 CURVE",
"581 500 OFFCURVE",
"487 566 OFFCURVE",
"355 566 CURVE SMOOTH",
"194 566 OFFCURVE",
"57 458 OFFCURVE",
"57 242 CURVE SMOOTH"
);
},
{
closed = 1;
nodes = (
"169 240 OFFCURVE",
"206 258 OFFCURVE",
"247 258 CURVE SMOOTH",
"302 258 OFFCURVE",
"340 221 OFFCURVE",
"340 155 CURVE SMOOTH",
"340 91 OFFCURVE",
"305 56 OFFCURVE",
"253 56 CURVE SMOOTH",
"191 56 OFFCURVE",
"142 98 OFFCURVE",
"136 212 CURVE"
);
}
